<svg style="width:120px;position:relative;/* top:8px; *//* float: left; */top: -7px;margin-left: 6px;" id="fff9af63-41b9-4e40-af70-9c93f2604cbe" data-name="Layer 1" xmlns="http://www.w3.org/2000/svg" viewBox="0 0 833.5 210.3">
                                                        <defs>
                                                            <style>
                                                                .f1613420-44e5-4c47-8df0-6243ff0d67a0 {
                                                                    fill: #00d1cf;
                                                                }

                                                                .b7bb43b0-7c24-43fd-bddb-ba06c7787c59 {
                                                                    fill: #04ff8e;
                                                                }

                                                                .af87bc22-b2a0-4ed7-bce9-6964d3f0a8ab {
                                                                    fill: #fff;
                                                                }
                                                            </style>
                                                        </defs>
                                                        <path class="f1613420-44e5-4c47-8df0-6243ff0d67a0" d="M429.74,397.39h0c0,10.4,2.2,18.5,6.4,23.9,4.4,5.6,10.6,8.4,18.2,8.4a24.11,24.11,0,0,0,18.8-8.3c4.8-5.4,7.2-13.5,7.2-24s-2.1-18.4-6.3-23.8c-4.4-5.6-10.5-8.4-18.2-8.4a24.46,24.46,0,0,0-18.9,8.3c-4.8,5.3-7.2,13.4-7.2,23.9m25.4,46.3c-12.4,0-22.6-3.8-30.1-11.4-8.2-8.2-12.4-19.9-12.4-34.7,0-15.1,4.1-26.9,12.4-35.1,7.4-7.4,17.6-11.2,30.1-11.2a47.65,47.65,0,0,1,16.7,2.8,33.92,33.92,0,0,1,13,8.4c8.2,8.3,12.4,20.2,12.4,35.1,0,14.7-4.2,26.4-12.4,34.7q-11.1,11.4-29.7,11.4" transform="translate(-266.24 -278.79)"></path>
                                                        <path class="f1613420-44e5-4c47-8df0-6243ff0d67a0" d="M576.14,443.89a8.26,8.26,0,0,1-8.2-8v-44.7a46.85,46.85,0,0,0-.7-8.4,23.74,23.74,0,0,0-2.2-6.5,16.29,16.29,0,0,0-7.6-7.3,24.86,24.86,0,0,0-11.1-2.3,24,24,0,0,0-11.5,2.6,17.28,17.28,0,0,0-7.7,8.1c-1.6,3.3-2.4,7.7-2.4,13.5v44.8l.1.4a8.21,8.21,0,0,1-16.4,0l-.1-1.9v-47.8c0-6.9,1.2-12.7,3.5-17.3a29.38,29.38,0,0,1,5-7.1,30.44,30.44,0,0,1,7.3-5.5,42.69,42.69,0,0,1,9.8-3.6,57.39,57.39,0,0,1,12.4-1.3c8.6,0,15.7,1.4,21.3,4.3a30.26,30.26,0,0,1,12.4,11.4,31.94,31.94,0,0,1,3.3,8.4,47.12,47.12,0,0,1,1.1,10.6v49.8a8.18,8.18,0,0,1-8.3,7.8" transform="translate(-266.24 -278.79)"></path>
                                                        <path class="f1613420-44e5-4c47-8df0-6243ff0d67a0" d="M691.34,489.09c-1.4,0-2.8-.1-4.1-.2l-2.8-.3a40.42,40.42,0,0,1-8.3-2.1H676l-.5-.2a6.12,6.12,0,0,1-3.7-7.9,6.24,6.24,0,0,1,5.7-4.1c.3,0,.9.1,1.7.1l5.5.6h.7c.4,0,.7.1,1.1.1a16.16,16.16,0,0,0,13.2-6.4,46.47,46.47,0,0,0,7.5-14.9l3.2-10-32.2-80.2v-.2l-.1-.5a8.52,8.52,0,0,1-.3-2.3,8.81,8.81,0,0,1,8.8-8.8,8.7,8.7,0,0,1,8.3,6.1l.7,2.2h.1l22.5,64.7,19.5-64.3h0l.8-2.7a8,8,0,0,1,15.7,2.2,9.85,9.85,0,0,1-.2,1.7l-.1.5-31.7,97.5c-3.5,10.5-7.8,18.2-12.7,22.7s-10.7,6.7-18.2,6.7" transform="translate(-266.24 -278.79)"></path>
                                                        <path class="f1613420-44e5-4c47-8df0-6243ff0d67a0" d="M612.44,388.29h0l32-.1h7.1c2.7,0,5.4-1.6,5.4-6.2a12.75,12.75,0,0,0-.1-1.9,25.14,25.14,0,0,0-3-7.6,19,19,0,0,0-7.1-6.7,20.72,20.72,0,0,0-10.1-2.2c-7.2,0-13,2.4-17.1,7.2-4,4.6-6.3,10.5-7.1,17.5m24,55.4a37.46,37.46,0,0,1-28.7-12.5c-8-8.7-12-20.1-12-33.8,0-14.1,4-25.5,12-34,7.7-8.1,17.1-12.1,28.7-12.1,12.1,0,21.1,4.1,27.8,12.5a40.92,40.92,0,0,1,6.6,13.2c.6,1.9,1,3.8,1.4,5.6a1.88,1.88,0,0,0,.2.8,19.42,19.42,0,0,1,.2,2.4,14.17,14.17,0,0,1-14.1,14.2h-46.3l.1,3c.3,8,2.3,14.8,6.1,19.9,4,5.5,10,8.2,18,8.2,5.1,0,9.4-.9,15-5.3a13.63,13.63,0,0,0,2.4-2.4c.5-.5.9-1,1.3-1.4l.2-.2.1-.2a7.07,7.07,0,0,1,10-1.5,7.15,7.15,0,0,1,2.9,5.7,6.65,6.65,0,0,1-.9,3.4l-.1.2-.6.9a25.14,25.14,0,0,1-5.4,5.4c-6.7,5.2-15.1,7.8-24.8,7.8" transform="translate(-266.24 -278.79)"></path>
                                                        <path class="f1613420-44e5-4c47-8df0-6243ff0d67a0" d="M393.24,444.29a8.07,8.07,0,0,1-8.1-7.8v-45.1a46.85,46.85,0,0,0-.7-8.4,25.63,25.63,0,0,0-2.2-6.6,17.29,17.29,0,0,0-7.6-7.3,27.54,27.54,0,0,0-22.7.3,17.28,17.28,0,0,0-7.7,8.1c-1.2,2.4-1.8,6.1-2.1,11.6v46.3l-.1,1.1a8.22,8.22,0,0,1-16.4,0l-.1-1.4v-46c0-.4-.2-5-.4-6.1a25.63,25.63,0,0,0-2.2-6.6,16.77,16.77,0,0,0-7.6-7.3,24.86,24.86,0,0,0-11.1-2.3,24,24,0,0,0-11.5,2.6,17.28,17.28,0,0,0-7.7,8.1c-1.6,3.3-2.4,7.7-2.4,13.5v45.6a8.15,8.15,0,0,1-16.3,0l-.1-1.3v-48.8c0-6.9,1.2-12.7,3.5-17.3a27.23,27.23,0,0,1,5.1-7.1,29.4,29.4,0,0,1,7.3-5.4,42.69,42.69,0,0,1,9.8-3.6,57.39,57.39,0,0,1,12.4-1.3c8.6,0,15.8,1.4,21.3,4.3a29.63,29.63,0,0,1,6.6,4.5l1.8,1.6,1.9-1.6a31.16,31.16,0,0,1,5.6-3.9,42.69,42.69,0,0,1,9.8-3.6,57.39,57.39,0,0,1,12.4-1.3c8.6,0,15.7,1.4,21.3,4.3a30.26,30.26,0,0,1,12.4,11.4,31.94,31.94,0,0,1,3.3,8.4,47.12,47.12,0,0,1,1.1,10.6v49.3l-.1.8a8.89,8.89,0,0,1-8.5,7.7" transform="translate(-266.24 -278.79)"></path>
                                                        <path class="b7bb43b0-7c24-43fd-bddb-ba06c7787c59" d="M923.74,388.29h0l32-.1h7.1c2.7,0,5.4-1.6,5.4-6.2a12.75,12.75,0,0,0-.1-1.9,25.14,25.14,0,0,0-3-7.6,19,19,0,0,0-7.1-6.7,21.46,21.46,0,0,0-10.2-2.3c-7.2,0-13,2.4-17.1,7.2s-6.3,10.6-7,17.6m23.8,55.4a37.46,37.46,0,0,1-28.7-12.5c-8-8.7-12-20.1-12-33.8,0-14.1,4-25.5,12-34,7.7-8.1,17.1-12.1,28.7-12.1,12.1,0,21.1,4.1,27.8,12.5A40.17,40.17,0,0,1,982,377c.6,1.9,1,3.8,1.4,5.6a1.88,1.88,0,0,0,.2.8,19.42,19.42,0,0,1,.2,2.4,14.19,14.19,0,0,1-14.2,14.2h-46.3l.1,3c.3,8,2.3,14.8,6.1,19.9,4,5.5,10,8.2,18,8.2,5.1,0,9.3-.9,15-5.3a13.63,13.63,0,0,0,2.4-2.4c.5-.5.9-1,1.3-1.4l.2-.2.1-.2a7.07,7.07,0,0,1,10-1.5,7.15,7.15,0,0,1,2.9,5.7,6.65,6.65,0,0,1-.9,3.4l-.1.2-.6.9a25.14,25.14,0,0,1-5.4,5.4c-6.8,5.4-15.2,8-24.9,8" transform="translate(-266.24 -278.79)"></path>
                                                        <path class="b7bb43b0-7c24-43fd-bddb-ba06c7787c59" d="M887.34,444.29a8.14,8.14,0,0,1-8.1-7.8v-45.1a46.85,46.85,0,0,0-.7-8.4,25.63,25.63,0,0,0-2.2-6.6,17.29,17.29,0,0,0-7.6-7.3,27.31,27.31,0,0,0-22.6.3,17,17,0,0,0-7.6,8.1c-1.2,2.4-1.8,6.1-2.1,11.6v46.3l-.1,1.1a8.22,8.22,0,0,1-16.4,0l-.1-1.4v-46c0-.4-.2-5-.4-6.1a25.63,25.63,0,0,0-2.2-6.6,16.77,16.77,0,0,0-7.6-7.3,27.54,27.54,0,0,0-22.7.3,17.28,17.28,0,0,0-7.7,8.1c-1.6,3.3-2.4,7.7-2.4,13.5v45.6a8.21,8.21,0,0,1-16.4,0l-.1-1.3v-48.8c0-6.9,1.2-12.7,3.5-17.3a27.85,27.85,0,0,1,12.3-12.5,41.92,41.92,0,0,1,9.7-3.6,57.39,57.39,0,0,1,12.4-1.3c8.6,0,15.8,1.4,21.3,4.3a29.63,29.63,0,0,1,6.6,4.5l1.9,1.6,1.9-1.6a31.16,31.16,0,0,1,5.6-3.9,42.69,42.69,0,0,1,9.8-3.6,57.39,57.39,0,0,1,12.4-1.3c8.6,0,15.7,1.4,21.3,4.3a30.26,30.26,0,0,1,12.4,11.4,31.94,31.94,0,0,1,3.3,8.4,47.12,47.12,0,0,1,1.1,10.6v49.3l-.1.8a8.7,8.7,0,0,1-8.4,7.7" transform="translate(-266.24 -278.79)"></path>
                                                        <path d="M1099.74,330.19a51.42,51.42,0,0,0-102.5-5.9h0l-.4,57.3,54.4-.1h0A51.55,51.55,0,0,0,1099.74,330.19Z" transform="translate(-266.24 -278.79)"></path>
                                                        <path class="af87bc22-b2a0-4ed7-bce9-6964d3f0a8ab" d="M1078,337.49h-24.8v26h-12.8v-26h-24.6V326h24.6v-25.9h12.8V326H1078Z" transform="translate(-266.24 -278.79)"></path>
                                                    </svg>