<svg xmlns="http://www.w3.org/2000/svg" xmlns:xlink="http://www.w3.org/1999/xlink" version="1.1" id="Layer_1" x="0px" y="0px" viewBox="0 0 834.2 308.1" style="enable-background:new 0 0 834.2 308.1;" xml:space="preserve"><g xmlns="http://www.w3.org/2000/svg">
<style xmlns="http://www.w3.org/2000/svg" type="text/css">
.st0{fill:#00D1CF;}
.st1{fill:#04FF8E;}
.st2{fill:#FFFFFF;}
</style>
<g>
    <g>
        <g>
            <g>
                <path class="st0" d="M164.1,118.6L164.1,118.6c0,10.4,2.2,18.5,6.4,23.9c4.4,5.6,10.6,8.4,18.2,8.4c7.2,0.2,14.1-2.9,18.8-8.3       c4.8-5.4,7.2-13.5,7.2-24s-2.1-18.4-6.4-23.8c-4.4-5.6-10.5-8.5-18.2-8.5c-7.2-0.2-14.1,2.9-18.9,8.3       C166.5,100,164.1,108.1,164.1,118.6 M189.5,164.9c-12.4,0-22.6-3.8-30.1-11.4c-8.2-8.2-12.4-19.9-12.4-34.7       c0-15.1,4.2-26.9,12.4-35.1c7.4-7.4,17.6-11.2,30.1-11.2c5.7,0,11.3,0.9,16.6,2.8c4.9,1.8,9.4,4.6,13.1,8.4       c8.2,8.3,12.4,20.2,12.4,35.1c0,14.7-4.2,26.4-12.4,34.7C211.9,161,201.9,164.9,189.5,164.9"/>
                <g>
                    <defs>
                        <path id="SVGID_1_" d="M164.1,118.6L164.1,118.6c0,10.4,2.2,18.5,6.4,23.9c4.4,5.6,10.6,8.4,18.2,8.4         c7.2,0.2,14.1-2.9,18.8-8.3c4.8-5.4,7.2-13.5,7.2-24s-2.1-18.4-6.4-23.8c-4.4-5.6-10.5-8.5-18.2-8.5         c-7.2-0.2-14.1,2.9-18.9,8.3C166.5,100,164.1,108.1,164.1,118.6 M189.5,164.9c-12.4,0-22.6-3.8-30.1-11.4         c-8.2-8.2-12.4-19.9-12.4-34.7c0-15.1,4.2-26.9,12.4-35.1c7.4-7.4,17.6-11.2,30.1-11.2c5.7,0,11.3,0.9,16.6,2.8         c4.9,1.8,9.4,4.6,13.1,8.4c8.2,8.3,12.4,20.2,12.4,35.1c0,14.7-4.2,26.4-12.4,34.7C211.9,161,201.9,164.9,189.5,164.9"/>
                    </defs>
                    <clipPath id="SVGID_2_">
                        <use xmlns:xlink="http://www.w3.org/1999/xlink" xlink:href="#SVGID_1_" style="overflow:visible;"/>
                    </clipPath>
                </g>
            </g>
            <g>
                <path class="st0" d="M310.5,165.1c-4.4,0-8.1-3.6-8.2-8v-0.2v-44.6c0-2.8-0.2-5.7-0.7-8.4c-0.4-2.3-1.2-4.5-2.2-6.5       c-1.7-3.2-4.4-5.8-7.6-7.3c-3.5-1.6-7.2-2.4-11.1-2.3c-4-0.1-8,0.8-11.6,2.6c-3.4,1.8-6.1,4.6-7.7,8.1       c-1.6,3.3-2.4,7.7-2.4,13.5v44.8l0.1,0.4c0,4.5-3.7,8.2-8.2,8.2c-4.5,0-8.2-3.7-8.2-8.2l0,0l-0.1-1.9v-47.9       c0-6.9,1.2-12.7,3.5-17.3c1.3-2.6,3-5,5-7.1c2.1-2.2,4.6-4,7.3-5.5c3.1-1.6,6.4-2.8,9.8-3.6c4.1-0.9,8.2-1.3,12.4-1.3       c8.6,0,15.8,1.4,21.3,4.3c5.1,2.5,9.4,6.5,12.4,11.4c1.5,2.6,2.6,5.5,3.3,8.5c0.8,3.5,1.1,7,1.1,10.6v48.9v0.9       C318.7,161.6,315,165.2,310.5,165.1"/>
                <g>
                    <defs>
                        <path id="SVGID_3_" d="M310.5,165.1c-4.4,0-8.1-3.6-8.2-8v-0.2v-44.6c0-2.8-0.2-5.7-0.7-8.4c-0.4-2.3-1.2-4.5-2.2-6.5         c-1.7-3.2-4.4-5.8-7.6-7.3c-3.5-1.6-7.2-2.4-11.1-2.3c-4-0.1-8,0.8-11.6,2.6c-3.4,1.8-6.1,4.6-7.7,8.1         c-1.6,3.3-2.4,7.7-2.4,13.5v44.8l0.1,0.4c0,4.5-3.7,8.2-8.2,8.2c-4.5,0-8.2-3.7-8.2-8.2l0,0l-0.1-1.9v-47.9         c0-6.9,1.2-12.7,3.5-17.3c1.3-2.6,3-5,5-7.1c2.1-2.2,4.6-4,7.3-5.5c3.1-1.6,6.4-2.8,9.8-3.6c4.1-0.9,8.2-1.3,12.4-1.3         c8.6,0,15.8,1.4,21.3,4.3c5.1,2.5,9.4,6.5,12.4,11.4c1.5,2.6,2.6,5.5,3.3,8.5c0.8,3.5,1.1,7,1.1,10.6v48.9v0.9         C318.7,161.6,315,165.2,310.5,165.1"/>
                    </defs>
                    <clipPath id="SVGID_4_">
                        <use xmlns:xlink="http://www.w3.org/1999/xlink" xlink:href="#SVGID_3_" style="overflow:visible;"/>
                    </clipPath>
                </g>
            </g>
            <g>
                <path class="st0" d="M425.8,210.3c-1.4,0-2.8-0.1-4.1-0.2l-2.8-0.3c-2.8-0.4-5.6-1.1-8.3-2.1l-0.1-0.1l-0.5-0.2       c-3.2-1.2-4.9-4.7-3.7-7.9c0.9-2.4,3.1-4,5.7-4.1c0.3,0,0.9,0.1,1.7,0.2l5.4,0.6l0.7,0.1c0.4,0,0.7,0.1,1.1,0.1       c5.2,0.1,10.1-2.3,13.2-6.4c3.4-4.5,6-9.5,7.5-14.9l3.2-10l-32.2-80.2v-0.2l-0.1-0.5c-0.2-0.7-0.3-1.5-0.3-2.3       c0-4.9,3.9-8.8,8.8-8.8c3.8,0,7.2,2.5,8.4,6.1l0.7,2.2h0.1l22.5,64.7l19.5-64.3l0,0l0.8-2.7c1.1-4.3,5.5-6.8,9.8-5.7       c3.6,0.9,6.1,4.2,6,7.9c0,0.6-0.1,1.1-0.2,1.7l-0.1,0.5l-31.7,97.6c-3.5,10.6-7.8,18.2-12.7,22.7S433.3,210.3,425.8,210.3"/>
                <g>
                    <defs>
                        <path id="SVGID_5_" d="M425.8,210.3c-1.4,0-2.8-0.1-4.1-0.2l-2.8-0.3c-2.8-0.4-5.6-1.1-8.3-2.1l-0.1-0.1l-0.5-0.2         c-3.2-1.2-4.9-4.7-3.7-7.9c0.9-2.4,3.1-4,5.7-4.1c0.3,0,0.9,0.1,1.7,0.2l5.4,0.6l0.7,0.1c0.4,0,0.7,0.1,1.1,0.1         c5.2,0.1,10.1-2.3,13.2-6.4c3.4-4.5,6-9.5,7.5-14.9l3.2-10l-32.2-80.2v-0.2l-0.1-0.5c-0.2-0.7-0.3-1.5-0.3-2.3         c0-4.9,3.9-8.8,8.8-8.8c3.8,0,7.2,2.5,8.4,6.1l0.7,2.2h0.1l22.5,64.7l19.5-64.3l0,0l0.8-2.7c1.1-4.3,5.5-6.8,9.8-5.7         c3.6,0.9,6.1,4.2,6,7.9c0,0.6-0.1,1.1-0.2,1.7l-0.1,0.5l-31.7,97.6c-3.5,10.6-7.8,18.2-12.7,22.7S433.3,210.3,425.8,210.3"/>
                    </defs>
                    <clipPath id="SVGID_6_">
                        <use xmlns:xlink="http://www.w3.org/1999/xlink" xlink:href="#SVGID_5_" style="overflow:visible;"/>
                    </clipPath>
                </g>
            </g>
            <g>
                <path class="st0" d="M346.9,109.5L346.9,109.5l32-0.1h7.1l0,0c2.7,0,5.4-1.6,5.4-6.2c0-0.6-0.1-1.2-0.1-1.9       c-0.6-2.7-1.6-5.3-3-7.6c-1.7-2.8-4.2-5.2-7.1-6.7c-3.2-1.6-6.7-2.4-10.2-2.3c-7.2,0-13,2.4-17.1,7.2       C349.9,96.5,347.6,102.4,346.9,109.5 M370.7,164.9c-10.9,0.2-21.4-4.3-28.7-12.5c-8-8.7-12-20.1-12-33.8c0-14.1,4-25.5,12-34       c7.7-8.2,17.1-12.1,28.7-12.1c12.1,0,21.1,4.1,27.8,12.5c3,3.9,5.3,8.4,6.7,13.2c0.6,1.9,1,3.8,1.4,5.6c0,0.3,0.1,0.6,0.2,0.9       c0.1,0.8,0.2,1.6,0.2,2.4c0,7.8-6.3,14.1-14.1,14.2l0,0h-46.4l0.1,3c0.3,8.1,2.3,14.8,6.1,19.9c4,5.5,10.1,8.3,18,8.3       c5.1,0,9.4-0.9,15-5.3c0.9-0.7,1.7-1.5,2.4-2.4c0.5-0.5,0.9-1,1.3-1.4l0.2-0.2l0.1-0.2c2.3-3.2,6.8-3.9,10-1.5       c1.8,1.3,2.9,3.5,2.9,5.7c0,1.2-0.3,2.4-0.9,3.4l-0.1,0.2c-0.2,0.3-0.4,0.6-0.6,0.9c-1.5,2.1-3.4,3.9-5.4,5.4       C388.9,162.2,380.5,164.9,370.7,164.9"/>
                <g>
                    <defs>
                        <path id="SVGID_7_" d="M346.9,109.5L346.9,109.5l32-0.1h7.1l0,0c2.7,0,5.4-1.6,5.4-6.2c0-0.6-0.1-1.2-0.1-1.9         c-0.6-2.7-1.6-5.3-3-7.6c-1.7-2.8-4.2-5.2-7.1-6.7c-3.2-1.6-6.7-2.4-10.2-2.3c-7.2,0-13,2.4-17.1,7.2         C349.9,96.5,347.6,102.4,346.9,109.5 M370.7,164.9c-10.9,0.2-21.4-4.3-28.7-12.5c-8-8.7-12-20.1-12-33.8c0-14.1,4-25.5,12-34         c7.7-8.2,17.1-12.1,28.7-12.1c12.1,0,21.1,4.1,27.8,12.5c3,3.9,5.3,8.4,6.7,13.2c0.6,1.9,1,3.8,1.4,5.6         c0,0.3,0.1,0.6,0.2,0.9c0.1,0.8,0.2,1.6,0.2,2.4c0,7.8-6.3,14.1-14.1,14.2l0,0h-46.4l0.1,3c0.3,8.1,2.3,14.8,6.1,19.9         c4,5.5,10.1,8.3,18,8.3c5.1,0,9.4-0.9,15-5.3c0.9-0.7,1.7-1.5,2.4-2.4c0.5-0.5,0.9-1,1.3-1.4l0.2-0.2l0.1-0.2         c2.3-3.2,6.8-3.9,10-1.5c1.8,1.3,2.9,3.5,2.9,5.7c0,1.2-0.3,2.4-0.9,3.4l-0.1,0.2c-0.2,0.3-0.4,0.6-0.6,0.9         c-1.5,2.1-3.4,3.9-5.4,5.4C388.9,162.2,380.5,164.9,370.7,164.9"/>
                    </defs>
                    <clipPath id="SVGID_8_">
                        <use xmlns:xlink="http://www.w3.org/1999/xlink" xlink:href="#SVGID_7_" style="overflow:visible;"/>
                    </clipPath>
                </g>
            </g>
            <g>
                <path class="st0" d="M127.6,165.4c-4.4,0-7.9-3.4-8.1-7.8V157v-44.4c0-2.8-0.2-5.7-0.7-8.4c-0.4-2.3-1.2-4.5-2.2-6.6       c-1.7-3.2-4.4-5.7-7.6-7.3c-3.5-1.6-7.2-2.4-11.1-2.3c-4-0.1-8,0.8-11.6,2.6c-3.4,1.8-6.1,4.6-7.6,8.1       c-1.2,2.4-1.8,6.1-2.1,11.6v46.3l-0.1,1.1c-0.2,4.6-4.1,8.1-8.7,7.8c-4.2-0.2-7.6-3.6-7.8-7.8l-0.1-1.4v-46       c0-0.4-0.2-5-0.4-6.1c-0.4-2.3-1.2-4.5-2.2-6.6c-1.7-3.2-4.4-5.7-7.6-7.3c-3.5-1.6-7.3-2.4-11.1-2.3c-4-0.1-8,0.8-11.6,2.6       c-3.4,1.8-6.1,4.6-7.7,8.1c-1.6,3.3-2.4,7.7-2.4,13.5v45.1v0.5c-0.2,4.5-4.1,8-8.6,7.8c-4.2-0.2-7.5-3.6-7.8-7.8l-0.1-1.3       v-48.9c0-6.9,1.2-12.7,3.5-17.3c1.3-2.6,3-5,5.1-7.1c2.2-2.2,4.6-4,7.3-5.4c3.1-1.6,6.4-2.8,9.8-3.6c4.1-0.9,8.2-1.3,12.4-1.3       c8.6,0,15.8,1.4,21.3,4.3c2.4,1.2,4.6,2.7,6.6,4.5l1.9,1.6l1.9-1.6c1.7-1.5,3.6-2.8,5.6-3.9c3.1-1.6,6.4-2.8,9.8-3.6       c4.1-0.9,8.2-1.3,12.4-1.3c8.6,0,15.8,1.4,21.3,4.3c5.1,2.5,9.4,6.5,12.4,11.4c1.5,2.6,2.6,5.5,3.3,8.4c0.8,3.5,1.1,7,1.1,10.6       v49.3l-0.1,0.8C135.6,162,132,165.4,127.6,165.4"/>
                <g>
                    <defs>
                        <path id="SVGID_9_" d="M127.6,165.4c-4.4,0-7.9-3.4-8.1-7.8V157v-44.4c0-2.8-0.2-5.7-0.7-8.4c-0.4-2.3-1.2-4.5-2.2-6.6         c-1.7-3.2-4.4-5.7-7.6-7.3c-3.5-1.6-7.2-2.4-11.1-2.3c-4-0.1-8,0.8-11.6,2.6c-3.4,1.8-6.1,4.6-7.6,8.1         c-1.2,2.4-1.8,6.1-2.1,11.6v46.3l-0.1,1.1c-0.2,4.6-4.1,8.1-8.7,7.8c-4.2-0.2-7.6-3.6-7.8-7.8l-0.1-1.4v-46         c0-0.4-0.2-5-0.4-6.1c-0.4-2.3-1.2-4.5-2.2-6.6c-1.7-3.2-4.4-5.7-7.6-7.3c-3.5-1.6-7.3-2.4-11.1-2.3c-4-0.1-8,0.8-11.6,2.6         c-3.4,1.8-6.1,4.6-7.7,8.1c-1.6,3.3-2.4,7.7-2.4,13.5v45.1v0.5c-0.2,4.5-4.1,8-8.6,7.8c-4.2-0.2-7.5-3.6-7.8-7.8l-0.1-1.3         v-48.9c0-6.9,1.2-12.7,3.5-17.3c1.3-2.6,3-5,5.1-7.1c2.2-2.2,4.6-4,7.3-5.4c3.1-1.6,6.4-2.8,9.8-3.6         c4.1-0.9,8.2-1.3,12.4-1.3c8.6,0,15.8,1.4,21.3,4.3c2.4,1.2,4.6,2.7,6.6,4.5l1.9,1.6l1.9-1.6c1.7-1.5,3.6-2.8,5.6-3.9         c3.1-1.6,6.4-2.8,9.8-3.6c4.1-0.9,8.2-1.3,12.4-1.3c8.6,0,15.8,1.4,21.3,4.3c5.1,2.5,9.4,6.5,12.4,11.4         c1.5,2.6,2.6,5.5,3.3,8.4c0.8,3.5,1.1,7,1.1,10.6v49.3l-0.1,0.8C135.6,162,132,165.4,127.6,165.4"/>
                    </defs>
                    <clipPath id="SVGID_10_">
                        <use xmlns:xlink="http://www.w3.org/1999/xlink" xlink:href="#SVGID_9_" style="overflow:visible;"/>
                    </clipPath>
                </g>
            </g>
        </g>
        <g>
            <g>
                <path class="st1" d="M658.2,109.5L658.2,109.5l32-0.1h7.1l0,0c2.7,0,5.4-1.6,5.4-6.2c0-0.6,0-1.2-0.1-1.9       c-0.6-2.7-1.6-5.3-3-7.6c-1.7-2.8-4.2-5.2-7.1-6.7c-3.1-1.6-6.6-2.3-10.2-2.2c-7.2,0-13,2.4-17.1,7.2c-4,4.6-6.3,10.5-7,17.6        M682.2,164.9c-10.9,0.3-21.4-4.3-28.7-12.5c-8-8.7-12-20.1-12-33.8c0-14.1,4-25.5,12-34c7.7-8.2,17.1-12.1,28.7-12.1       c12.1,0,21.1,4.1,27.8,12.5c3,3.9,5.3,8.4,6.7,13.2c0.6,1.9,1,3.8,1.4,5.6c0,0.3,0.1,0.6,0.2,0.9c0.1,0.8,0.2,1.6,0.2,2.4       c0,7.8-6.3,14.1-14.1,14.2l0,0h-46.4l0.1,3c0.3,8.1,2.3,14.8,6.1,19.9c4,5.5,10.1,8.3,18,8.3c5.1,0,9.3-0.9,15-5.3       c0.9-0.7,1.7-1.5,2.4-2.4c0.5-0.5,0.9-1,1.3-1.4l0.2-0.2l0.1-0.2c2.3-3.2,6.8-3.9,10-1.5c1.8,1.3,2.9,3.5,2.9,5.7       c0,1.2-0.3,2.4-0.9,3.4l-0.1,0.2c-0.2,0.3-0.4,0.6-0.6,0.9c-1.5,2.1-3.4,3.9-5.5,5.4c-6.7,5.2-15.1,7.8-24.8,7.8"/>
                <g>
                    <defs>
                        <path id="SVGID_11_" d="M658.2,109.5L658.2,109.5l32-0.1h7.1l0,0c2.7,0,5.4-1.6,5.4-6.2c0-0.6,0-1.2-0.1-1.9         c-0.6-2.7-1.6-5.3-3-7.6c-1.7-2.8-4.2-5.2-7.1-6.7c-3.1-1.6-6.6-2.3-10.2-2.2c-7.2,0-13,2.4-17.1,7.2c-4,4.6-6.3,10.5-7,17.6          M682.2,164.9c-10.9,0.3-21.4-4.3-28.7-12.5c-8-8.7-12-20.1-12-33.8c0-14.1,4-25.5,12-34c7.7-8.2,17.1-12.1,28.7-12.1         c12.1,0,21.1,4.1,27.8,12.5c3,3.9,5.3,8.4,6.7,13.2c0.6,1.9,1,3.8,1.4,5.6c0,0.3,0.1,0.6,0.2,0.9c0.1,0.8,0.2,1.6,0.2,2.4         c0,7.8-6.3,14.1-14.1,14.2l0,0h-46.4l0.1,3c0.3,8.1,2.3,14.8,6.1,19.9c4,5.5,10.1,8.3,18,8.3c5.1,0,9.3-0.9,15-5.3         c0.9-0.7,1.7-1.5,2.4-2.4c0.5-0.5,0.9-1,1.3-1.4l0.2-0.2l0.1-0.2c2.3-3.2,6.8-3.9,10-1.5c1.8,1.3,2.9,3.5,2.9,5.7         c0,1.2-0.3,2.4-0.9,3.4l-0.1,0.2c-0.2,0.3-0.4,0.6-0.6,0.9c-1.5,2.1-3.4,3.9-5.5,5.4c-6.7,5.2-15.1,7.8-24.8,7.8"/>
                    </defs>
                    <clipPath id="SVGID_12_">
                        <use xmlns:xlink="http://www.w3.org/1999/xlink" xlink:href="#SVGID_11_" style="overflow:visible;"/>
                    </clipPath>
                </g>
            </g>
            <g>
                <path class="st1" d="M621.9,165.4c-4.4,0-7.9-3.4-8.2-7.8V157v-44.4c0-2.8-0.2-5.7-0.8-8.5c-0.4-2.3-1.2-4.5-2.2-6.6       c-1.7-3.2-4.4-5.7-7.6-7.3c-3.5-1.6-7.2-2.4-11.1-2.3c-4-0.1-8,0.8-11.6,2.6c-3.4,1.8-6.1,4.6-7.7,8.1       c-1.2,2.4-1.8,6.1-2.1,11.6v46.3l-0.1,1.1c-0.2,4.6-4.1,8.1-8.7,7.8c-4.2-0.2-7.6-3.6-7.8-7.8l-0.1-1.4v-46       c0-0.4-0.2-5-0.4-6.1c-0.4-2.3-1.2-4.5-2.2-6.6c-1.7-3.2-4.4-5.7-7.6-7.3c-3.5-1.6-7.2-2.4-11.1-2.3c-4-0.1-8,0.8-11.6,2.6       c-3.4,1.8-6.1,4.6-7.7,8.1c-1.6,3.3-2.4,7.7-2.4,13.5v45.1v0.5c-0.2,4.5-4.1,8-8.6,7.8c-4.2-0.2-7.5-3.6-7.8-7.8l-0.1-1.3       v-48.8c0-6.9,1.2-12.7,3.5-17.3c1.3-2.6,3-5,5.1-7.1c2.2-2.2,4.6-4,7.3-5.4c3.1-1.6,6.4-2.8,9.8-3.6c4.1-0.9,8.2-1.3,12.4-1.3       c8.6,0,15.8,1.4,21.3,4.3c2.4,1.2,4.6,2.7,6.6,4.5l1.9,1.6l1.9-1.6c1.7-1.5,3.6-2.8,5.6-3.9c3.1-1.6,6.4-2.8,9.8-3.6       c4.1-0.9,8.2-1.3,12.4-1.3c8.6,0,15.8,1.4,21.3,4.3c5.1,2.5,9.4,6.5,12.4,11.4c1.5,2.6,2.6,5.5,3.3,8.4c0.8,3.5,1.1,7,1.1,10.6       v49.3l-0.1,0.8C629.8,162,626.2,165.4,621.9,165.4"/>
                <g>
                    <defs>
                        <path id="SVGID_13_" d="M621.9,165.4c-4.4,0-7.9-3.4-8.2-7.8V157v-44.4c0-2.8-0.2-5.7-0.8-8.5c-0.4-2.3-1.2-4.5-2.2-6.6         c-1.7-3.2-4.4-5.7-7.6-7.3c-3.5-1.6-7.2-2.4-11.1-2.3c-4-0.1-8,0.8-11.6,2.6c-3.4,1.8-6.1,4.6-7.7,8.1         c-1.2,2.4-1.8,6.1-2.1,11.6v46.3l-0.1,1.1c-0.2,4.6-4.1,8.1-8.7,7.8c-4.2-0.2-7.6-3.6-7.8-7.8l-0.1-1.4v-46         c0-0.4-0.2-5-0.4-6.1c-0.4-2.3-1.2-4.5-2.2-6.6c-1.7-3.2-4.4-5.7-7.6-7.3c-3.5-1.6-7.2-2.4-11.1-2.3c-4-0.1-8,0.8-11.6,2.6         c-3.4,1.8-6.1,4.6-7.7,8.1c-1.6,3.3-2.4,7.7-2.4,13.5v45.1v0.5c-0.2,4.5-4.1,8-8.6,7.8c-4.2-0.2-7.5-3.6-7.8-7.8l-0.1-1.3         v-48.8c0-6.9,1.2-12.7,3.5-17.3c1.3-2.6,3-5,5.1-7.1c2.2-2.2,4.6-4,7.3-5.4c3.1-1.6,6.4-2.8,9.8-3.6         c4.1-0.9,8.2-1.3,12.4-1.3c8.6,0,15.8,1.4,21.3,4.3c2.4,1.2,4.6,2.7,6.6,4.5l1.9,1.6l1.9-1.6c1.7-1.5,3.6-2.8,5.6-3.9         c3.1-1.6,6.4-2.8,9.8-3.6c4.1-0.9,8.2-1.3,12.4-1.3c8.6,0,15.8,1.4,21.3,4.3c5.1,2.5,9.4,6.5,12.4,11.4         c1.5,2.6,2.6,5.5,3.3,8.4c0.8,3.5,1.1,7,1.1,10.6v49.3l-0.1,0.8C629.8,162,626.2,165.4,621.9,165.4"/>
                    </defs>
                    <clipPath id="SVGID_14_">
                        <use xmlns:xlink="http://www.w3.org/1999/xlink" xlink:href="#SVGID_13_" style="overflow:visible;"/>
                    </clipPath>
                </g>
            </g>
        </g>
    </g>
    <path d="M834.2,51.4C834.2,23,811.2,0,782.8,0c-26.1,0-48,19.5-51,45.4l0,0l-0.4,57.3l54.4-0.1l0,0    C813,101.1,834.2,78.6,834.2,51.4z"/>
    <path class="st2" d="M812.6,58.7h-24.8v26H775v-26h-24.6V47.1H775V21.2h12.8v25.9h24.8V58.7z"/>
</g>

</g>
</svg>