<?xml version="1.0" encoding="utf-8"?>
<!-- Generator: Adobe Illustrator 24.3.0, SVG Export Plug-In . SVG Version: 6.00 Build 0)  -->
<svg version="1.1" id="Layer_2_1_" xmlns="http://www.w3.org/2000/svg" xmlns:xlink="http://www.w3.org/1999/xlink" x="0px" y="0px"
	 viewBox="0 0 848.8 227.6" style="enable-background:new 0 0 848.8 227.6;" xml:space="preserve">
<style type="text/css">
	.st0{fill:#00D1CF;}
	.st1{clip-path:url(#SVGID_2_);}
	.st2{clip-path:url(#SVGID_4_);}
	.st3{clip-path:url(#SVGID_6_);}
	.st4{clip-path:url(#SVGID_8_);}
	.st5{clip-path:url(#SVGID_10_);}
	.st6{fill:#04FF8E;}
	.st7{clip-path:url(#SVGID_12_);}
	.st8{clip-path:url(#SVGID_14_);}
	.st9{fill:#FFFFFF;}
</style>
<path class="st0" d="M171.7,126.6L171.7,126.6c0,10.4,2.2,18.5,6.4,23.9c4.4,5.6,10.6,8.4,18.2,8.4c7.2,0.2,14.1-2.9,18.8-8.3
	c4.8-5.4,7.2-13.5,7.2-24s-2.1-18.4-6.3-23.8c-4.4-5.6-10.5-8.4-18.2-8.4c-7.2-0.2-14.1,2.9-18.9,8.3
	C174.1,108,171.7,116.1,171.7,126.6 M197.1,172.9c-12.4,0-22.6-3.8-30.1-11.4c-8.2-8.2-12.4-19.9-12.4-34.7
	c0-15.1,4.1-26.9,12.4-35.1c7.4-7.4,17.6-11.2,30.1-11.2c5.7-0.1,11.3,0.9,16.7,2.8c4.9,1.8,9.4,4.6,13,8.4
	c8.2,8.3,12.4,20.2,12.4,35.1c0,14.7-4.2,26.4-12.4,34.7C219.4,169.1,209.5,172.9,197.1,172.9"/>
<g>
	<defs>
		<path id="SVGID_1_" d="M171.7,126.6L171.7,126.6c0,10.4,2.2,18.5,6.4,23.9c4.4,5.6,10.6,8.4,18.2,8.4c7.2,0.2,14.1-2.9,18.8-8.3
			c4.8-5.4,7.2-13.5,7.2-24s-2.1-18.4-6.3-23.8c-4.4-5.6-10.5-8.4-18.2-8.4c-7.2-0.2-14.1,2.9-18.9,8.3
			C174.1,108,171.7,116.1,171.7,126.6 M197.1,172.9c-12.4,0-22.6-3.8-30.1-11.4c-8.2-8.2-12.4-19.9-12.4-34.7
			c0-15.1,4.1-26.9,12.4-35.1c7.4-7.4,17.6-11.2,30.1-11.2c5.7-0.1,11.3,0.9,16.7,2.8c4.9,1.8,9.4,4.6,13,8.4
			c8.2,8.3,12.4,20.2,12.4,35.1c0,14.7-4.2,26.4-12.4,34.7C219.4,169.1,209.5,172.9,197.1,172.9"/>
	</defs>
	<clipPath id="SVGID_2_">
		<use xlink:href="#SVGID_1_"  style="overflow:visible;"/>
	</clipPath>
	<g class="st1">
		<rect x="8" y="78.4" class="st0" width="729.7" height="156.2"/>
	</g>
</g>
<path class="st0" d="M318.1,173.1c-4.4,0-8.1-3.6-8.2-8v-0.2v-44.5c0-2.8-0.2-5.7-0.7-8.4c-0.4-2.3-1.2-4.5-2.2-6.5
	c-1.7-3.2-4.3-5.8-7.6-7.3c-3.5-1.6-7.2-2.4-11.1-2.3c-4-0.1-8,0.8-11.5,2.6c-3.4,1.8-6.1,4.6-7.7,8.1c-1.6,3.3-2.4,7.7-2.4,13.5
	v44.8l0.1,0.4c-0.2,4.5-4,8.1-8.5,7.9c-4.3-0.2-7.8-3.6-7.9-7.9l-0.1-1.9v-47.8c0-6.9,1.2-12.7,3.5-17.3c1.3-2.6,3-5,5-7.1
	c2.1-2.2,4.6-4,7.3-5.5c3.1-1.6,6.4-2.8,9.8-3.6c4.1-0.9,8.2-1.3,12.4-1.3c8.6,0,15.7,1.4,21.3,4.3c5.1,2.5,9.4,6.5,12.4,11.4
	c1.5,2.6,2.6,5.5,3.3,8.4c0.8,3.5,1.1,7,1.1,10.6v48.9v0.9C326.2,169.6,322.6,173.2,318.1,173.1"/>
<g>
	<defs>
		<path id="SVGID_3_" d="M318.1,173.1c-4.4,0-8.1-3.6-8.2-8v-0.2v-44.5c0-2.8-0.2-5.7-0.7-8.4c-0.4-2.3-1.2-4.5-2.2-6.5
			c-1.7-3.2-4.3-5.8-7.6-7.3c-3.5-1.6-7.2-2.4-11.1-2.3c-4-0.1-8,0.8-11.5,2.6c-3.4,1.8-6.1,4.6-7.7,8.1c-1.6,3.3-2.4,7.7-2.4,13.5
			v44.8l0.1,0.4c-0.2,4.5-4,8.1-8.5,7.9c-4.3-0.2-7.8-3.6-7.9-7.9l-0.1-1.9v-47.8c0-6.9,1.2-12.7,3.5-17.3c1.3-2.6,3-5,5-7.1
			c2.1-2.2,4.6-4,7.3-5.5c3.1-1.6,6.4-2.8,9.8-3.6c4.1-0.9,8.2-1.3,12.4-1.3c8.6,0,15.7,1.4,21.3,4.3c5.1,2.5,9.4,6.5,12.4,11.4
			c1.5,2.6,2.6,5.5,3.3,8.4c0.8,3.5,1.1,7,1.1,10.6v48.9v0.9C326.2,169.6,322.6,173.2,318.1,173.1"/>
	</defs>
	<clipPath id="SVGID_4_">
		<use xlink:href="#SVGID_3_"  style="overflow:visible;"/>
	</clipPath>
	<g class="st2">
		<rect x="8" y="78.4" class="st0" width="729.7" height="156.2"/>
	</g>
</g>
<path class="st0" d="M433.3,218.3c-1.4,0-2.8-0.1-4.1-0.2l-2.8-0.3c-2.8-0.4-5.6-1.1-8.3-2.1h-0.1l-0.5-0.2
	c-3.2-1.1-4.9-4.7-3.7-7.9c0.9-2.4,3.2-4.1,5.7-4.1c0.3,0,0.9,0.1,1.7,0.1l5.5,0.6h0.7c0.4,0,0.7,0.1,1.1,0.1
	c5.2,0.1,10.1-2.3,13.2-6.4c3.4-4.5,5.9-9.5,7.5-14.9l3.2-10l-32.2-80.2v-0.2l-0.1-0.5c-0.2-0.7-0.3-1.5-0.3-2.3
	c0-4.9,4-8.8,8.8-8.8c3.8,0,7.2,2.5,8.3,6.1l0.7,2.2h0.1l22.5,64.7l19.5-64.3l0,0l0.8-2.7c1.1-4.3,5.5-6.8,9.8-5.7
	c3.5,0.9,6,4.2,5.9,7.9c0,0.6-0.1,1.1-0.2,1.7l-0.1,0.5l-31.7,97.5c-3.5,10.5-7.8,18.2-12.7,22.7S440.8,218.3,433.3,218.3"/>
<g>
	<defs>
		<path id="SVGID_5_" d="M433.3,218.3c-1.4,0-2.8-0.1-4.1-0.2l-2.8-0.3c-2.8-0.4-5.6-1.1-8.3-2.1h-0.1l-0.5-0.2
			c-3.2-1.1-4.9-4.7-3.7-7.9c0.9-2.4,3.2-4.1,5.7-4.1c0.3,0,0.9,0.1,1.7,0.1l5.5,0.6h0.7c0.4,0,0.7,0.1,1.1,0.1
			c5.2,0.1,10.1-2.3,13.2-6.4c3.4-4.5,5.9-9.5,7.5-14.9l3.2-10l-32.2-80.2v-0.2l-0.1-0.5c-0.2-0.7-0.3-1.5-0.3-2.3
			c0-4.9,4-8.8,8.8-8.8c3.8,0,7.2,2.5,8.3,6.1l0.7,2.2h0.1l22.5,64.7l19.5-64.3l0,0l0.8-2.7c1.1-4.3,5.5-6.8,9.8-5.7
			c3.5,0.9,6,4.2,5.9,7.9c0,0.6-0.1,1.1-0.2,1.7l-0.1,0.5l-31.7,97.5c-3.5,10.5-7.8,18.2-12.7,22.7S440.8,218.3,433.3,218.3"/>
	</defs>
	<clipPath id="SVGID_6_">
		<use xlink:href="#SVGID_5_"  style="overflow:visible;"/>
	</clipPath>
	<g class="st3">
		<rect x="8" y="78.4" class="st0" width="729.7" height="156.2"/>
	</g>
</g>
<path class="st0" d="M354.4,117.5L354.4,117.5l32-0.1h7.1l0,0c2.7,0,5.4-1.6,5.4-6.2c0-0.6,0-1.2-0.1-1.9c-0.6-2.7-1.6-5.3-3-7.6
	c-1.7-2.8-4.2-5.1-7.1-6.7c-3.1-1.6-6.6-2.3-10.1-2.2c-7.2,0-13,2.4-17.1,7.2C357.5,104.6,355.2,110.5,354.4,117.5 M378.4,172.9
	c-10.9,0.2-21.4-4.3-28.7-12.5c-8-8.7-12-20.1-12-33.8c0-14.1,4-25.5,12-34c7.7-8.1,17.1-12.1,28.7-12.1c12.1,0,21.1,4.1,27.8,12.5
	c3,4,5.2,8.4,6.6,13.2c0.6,1.9,1,3.8,1.4,5.6c0,0.3,0.1,0.6,0.2,0.8c0.1,0.8,0.2,1.6,0.2,2.4c0,7.8-6.3,14.2-14.1,14.2l0,0h-46.3
	l0.1,3c0.3,8,2.3,14.8,6.1,19.9c4,5.5,10,8.2,18,8.2c5.1,0,9.4-0.9,15-5.3c0.9-0.7,1.7-1.5,2.4-2.4c0.5-0.5,0.9-1,1.3-1.4l0.2-0.2
	l0.1-0.2c2.3-3.2,6.8-3.9,10-1.5c1.8,1.3,2.9,3.5,2.9,5.7c0,1.2-0.3,2.4-0.9,3.4l-0.1,0.2c-0.2,0.3-0.4,0.6-0.6,0.9
	c-1.5,2.1-3.4,3.9-5.4,5.4c-6.7,5.2-15.1,7.8-24.8,7.8"/>
<g>
	<defs>
		<path id="SVGID_7_" d="M354.4,117.5L354.4,117.5l32-0.1h7.1l0,0c2.7,0,5.4-1.6,5.4-6.2c0-0.6,0-1.2-0.1-1.9
			c-0.6-2.7-1.6-5.3-3-7.6c-1.7-2.8-4.2-5.1-7.1-6.7c-3.1-1.6-6.6-2.3-10.1-2.2c-7.2,0-13,2.4-17.1,7.2
			C357.5,104.6,355.2,110.5,354.4,117.5 M378.4,172.9c-10.9,0.2-21.4-4.3-28.7-12.5c-8-8.7-12-20.1-12-33.8c0-14.1,4-25.5,12-34
			c7.7-8.1,17.1-12.1,28.7-12.1c12.1,0,21.1,4.1,27.8,12.5c3,4,5.2,8.4,6.6,13.2c0.6,1.9,1,3.8,1.4,5.6c0,0.3,0.1,0.6,0.2,0.8
			c0.1,0.8,0.2,1.6,0.2,2.4c0,7.8-6.3,14.2-14.1,14.2l0,0h-46.3l0.1,3c0.3,8,2.3,14.8,6.1,19.9c4,5.5,10,8.2,18,8.2
			c5.1,0,9.4-0.9,15-5.3c0.9-0.7,1.7-1.5,2.4-2.4c0.5-0.5,0.9-1,1.3-1.4l0.2-0.2l0.1-0.2c2.3-3.2,6.8-3.9,10-1.5
			c1.8,1.3,2.9,3.5,2.9,5.7c0,1.2-0.3,2.4-0.9,3.4l-0.1,0.2c-0.2,0.3-0.4,0.6-0.6,0.9c-1.5,2.1-3.4,3.9-5.4,5.4
			c-6.7,5.2-15.1,7.8-24.8,7.8"/>
	</defs>
	<clipPath id="SVGID_8_">
		<use xlink:href="#SVGID_7_"  style="overflow:visible;"/>
	</clipPath>
	<g class="st4">
		<rect x="8" y="78.4" class="st0" width="729.7" height="156.2"/>
	</g>
</g>
<path class="st0" d="M135.2,173.5c-4.4,0-7.9-3.4-8.1-7.8V165v-44.4c0-2.8-0.2-5.7-0.7-8.4c-0.4-2.3-1.2-4.5-2.2-6.6
	c-1.7-3.2-4.4-5.7-7.6-7.3c-3.5-1.6-7.2-2.4-11.1-2.3c-4-0.1-8,0.8-11.6,2.6c-3.4,1.8-6.1,4.6-7.7,8.1c-1.2,2.4-1.8,6.1-2.1,11.6
	v46.3l-0.1,1.1c-0.3,4.6-4.2,8-8.7,7.7c-4.2-0.3-7.5-3.6-7.7-7.7l-0.1-1.4v-46c0-0.4-0.2-5-0.4-6.1c-0.4-2.3-1.2-4.5-2.2-6.6
	c-1.7-3.2-4.4-5.8-7.6-7.3c-3.5-1.6-7.2-2.4-11.1-2.3c-4-0.1-8,0.8-11.5,2.6c-3.4,1.8-6.1,4.6-7.7,8.1c-1.6,3.3-2.4,7.7-2.4,13.5
	v45.1v0.5c-0.2,4.5-3.9,8-8.4,7.9c-4.3-0.1-7.7-3.6-7.9-7.9l-0.1-1.3v-48.8c0-6.9,1.2-12.7,3.5-17.3c1.3-2.6,3-5,5.1-7.1
	c2.2-2.2,4.6-4,7.3-5.4c3.1-1.6,6.4-2.8,9.8-3.6c4.1-0.9,8.2-1.3,12.4-1.3c8.6,0,15.8,1.4,21.3,4.3c2.4,1.2,4.6,2.7,6.6,4.5l1.8,1.6
	l1.9-1.6c1.7-1.5,3.6-2.8,5.6-3.9c3.1-1.6,6.4-2.8,9.8-3.6c4.1-0.9,8.2-1.3,12.4-1.3c8.6,0,15.7,1.4,21.3,4.3
	c5.1,2.5,9.4,6.5,12.4,11.4c1.5,2.6,2.6,5.5,3.3,8.4c0.8,3.5,1.1,7,1.1,10.6v49.3l-0.1,0.8C143.1,170,139.6,173.4,135.2,173.5"/>
<g>
	<defs>
		<path id="SVGID_9_" d="M135.2,173.5c-4.4,0-7.9-3.4-8.1-7.8V165v-44.4c0-2.8-0.2-5.7-0.7-8.4c-0.4-2.3-1.2-4.5-2.2-6.6
			c-1.7-3.2-4.4-5.7-7.6-7.3c-3.5-1.6-7.2-2.4-11.1-2.3c-4-0.1-8,0.8-11.6,2.6c-3.4,1.8-6.1,4.6-7.7,8.1c-1.2,2.4-1.8,6.1-2.1,11.6
			v46.3l-0.1,1.1c-0.3,4.6-4.2,8-8.7,7.7c-4.2-0.3-7.5-3.6-7.7-7.7l-0.1-1.4v-46c0-0.4-0.2-5-0.4-6.1c-0.4-2.3-1.2-4.5-2.2-6.6
			c-1.7-3.2-4.4-5.8-7.6-7.3c-3.5-1.6-7.2-2.4-11.1-2.3c-4-0.1-8,0.8-11.5,2.6c-3.4,1.8-6.1,4.6-7.7,8.1c-1.6,3.3-2.4,7.7-2.4,13.5
			v45.1v0.5c-0.2,4.5-3.9,8-8.4,7.9c-4.3-0.1-7.7-3.6-7.9-7.9l-0.1-1.3v-48.8c0-6.9,1.2-12.7,3.5-17.3c1.3-2.6,3-5,5.1-7.1
			c2.2-2.2,4.6-4,7.3-5.4c3.1-1.6,6.4-2.8,9.8-3.6c4.1-0.9,8.2-1.3,12.4-1.3c8.6,0,15.8,1.4,21.3,4.3c2.4,1.2,4.6,2.7,6.6,4.5
			l1.8,1.6l1.9-1.6c1.7-1.5,3.6-2.8,5.6-3.9c3.1-1.6,6.4-2.8,9.8-3.6c4.1-0.9,8.2-1.3,12.4-1.3c8.6,0,15.7,1.4,21.3,4.3
			c5.1,2.5,9.4,6.5,12.4,11.4c1.5,2.6,2.6,5.5,3.3,8.4c0.8,3.5,1.1,7,1.1,10.6v49.3l-0.1,0.8C143.1,170,139.6,173.4,135.2,173.5"/>
	</defs>
	<clipPath id="SVGID_10_">
		<use xlink:href="#SVGID_9_"  style="overflow:visible;"/>
	</clipPath>
	<g class="st5">
		<rect x="8" y="78.4" class="st0" width="729.7" height="156.2"/>
	</g>
</g>
<path class="st6" d="M665.7,117.5L665.7,117.5l32-0.1h7.1l0,0c2.7,0,5.4-1.6,5.4-6.2c0-0.6,0-1.2-0.1-1.9c-0.6-2.7-1.6-5.3-3-7.6
	c-1.7-2.8-4.2-5.1-7.1-6.7c-3.2-1.6-6.7-2.4-10.2-2.3c-7.2,0-13,2.4-17.1,7.2C668.7,104.6,666.4,110.5,665.7,117.5 M689.5,172.9
	c-10.9,0.2-21.4-4.3-28.7-12.5c-8-8.7-12-20.1-12-33.8c0-14.1,4-25.5,12-34c7.7-8.1,17.1-12.1,28.7-12.1c12.1,0,21.1,4.1,27.8,12.5
	c3,3.9,5.3,8.4,6.7,13.2c0.6,1.9,1,3.8,1.4,5.6c0,0.3,0.1,0.6,0.2,0.8c0.1,0.8,0.2,1.6,0.2,2.4c0,7.8-6.3,14.2-14.2,14.2l0,0h-46.3
	l0.1,3c0.3,8,2.3,14.8,6.1,19.9c4,5.5,10,8.2,18,8.2c5.1,0,9.3-0.9,15-5.3c0.9-0.7,1.7-1.5,2.4-2.4c0.5-0.5,0.9-1,1.3-1.4l0.2-0.2
	l0.1-0.2c2.3-3.2,6.8-3.9,10-1.5c1.8,1.3,2.9,3.5,2.9,5.7c0,1.2-0.3,2.4-0.9,3.4l-0.1,0.2c-0.2,0.3-0.4,0.6-0.6,0.9
	c-1.5,2.1-3.4,3.9-5.4,5.4C707.6,170.3,699.2,172.9,689.5,172.9"/>
<g>
	<defs>
		<path id="SVGID_11_" d="M665.7,117.5L665.7,117.5l32-0.1h7.1l0,0c2.7,0,5.4-1.6,5.4-6.2c0-0.6,0-1.2-0.1-1.9
			c-0.6-2.7-1.6-5.3-3-7.6c-1.7-2.8-4.2-5.1-7.1-6.7c-3.2-1.6-6.7-2.4-10.2-2.3c-7.2,0-13,2.4-17.1,7.2
			C668.7,104.6,666.4,110.5,665.7,117.5 M689.5,172.9c-10.9,0.2-21.4-4.3-28.7-12.5c-8-8.7-12-20.1-12-33.8c0-14.1,4-25.5,12-34
			c7.7-8.1,17.1-12.1,28.7-12.1c12.1,0,21.1,4.1,27.8,12.5c3,3.9,5.3,8.4,6.7,13.2c0.6,1.9,1,3.8,1.4,5.6c0,0.3,0.1,0.6,0.2,0.8
			c0.1,0.8,0.2,1.6,0.2,2.4c0,7.8-6.3,14.2-14.2,14.2l0,0h-46.3l0.1,3c0.3,8,2.3,14.8,6.1,19.9c4,5.5,10,8.2,18,8.2
			c5.1,0,9.3-0.9,15-5.3c0.9-0.7,1.7-1.5,2.4-2.4c0.5-0.5,0.9-1,1.3-1.4l0.2-0.2l0.1-0.2c2.3-3.2,6.8-3.9,10-1.5
			c1.8,1.3,2.9,3.5,2.9,5.7c0,1.2-0.3,2.4-0.9,3.4l-0.1,0.2c-0.2,0.3-0.4,0.6-0.6,0.9c-1.5,2.1-3.4,3.9-5.4,5.4
			C707.6,170.3,699.2,172.9,689.5,172.9"/>
	</defs>
	<clipPath id="SVGID_12_">
		<use xlink:href="#SVGID_11_"  style="overflow:visible;"/>
	</clipPath>
	<g class="st7">
		<rect x="319.2" y="78.4" class="st6" width="729.7" height="156.2"/>
	</g>
</g>
<path class="st6" d="M629.3,173.5c-4.3,0-7.9-3.4-8.1-7.8V165v-44.4c0-2.8-0.2-5.7-0.7-8.4c-0.4-2.3-1.2-4.5-2.2-6.6
	c-1.7-3.2-4.4-5.7-7.6-7.3c-3.5-1.6-7.2-2.4-11-2.3c-4-0.1-8,0.8-11.6,2.6c-3.4,1.8-6.1,4.7-7.6,8.1c-1.2,2.4-1.8,6.1-2.1,11.6v46.3
	l-0.1,1.1c-0.3,4.6-4.2,8-8.7,7.7c-4.2-0.3-7.5-3.6-7.7-7.7l-0.1-1.4v-46c0-0.4-0.2-5-0.4-6.1c-0.4-2.3-1.2-4.5-2.2-6.6
	c-1.7-3.2-4.4-5.8-7.6-7.3c-3.5-1.6-7.2-2.4-11.1-2.3c-4-0.1-8,0.8-11.6,2.6c-3.4,1.8-6.1,4.6-7.7,8.1c-1.6,3.3-2.4,7.7-2.4,13.5
	v45.1v0.5c-0.2,4.5-4.1,8-8.6,7.8c-4.2-0.2-7.5-3.6-7.8-7.8l-0.1-1.3v-48.8c0-6.9,1.2-12.7,3.5-17.3c1.3-2.6,3-5,5-7.1
	c2.2-2.2,4.6-4,7.3-5.4c3.1-1.6,6.3-2.8,9.7-3.6c4.1-0.9,8.2-1.3,12.4-1.3c8.6,0,15.8,1.4,21.3,4.3c2.4,1.2,4.6,2.7,6.6,4.5l1.9,1.6
	l1.9-1.6c1.7-1.5,3.6-2.8,5.6-3.9c3.1-1.6,6.4-2.8,9.8-3.6c4.1-0.9,8.2-1.3,12.4-1.3c8.6,0,15.7,1.4,21.3,4.3
	c5.1,2.5,9.4,6.5,12.4,11.4c1.5,2.6,2.6,5.5,3.3,8.4c0.8,3.5,1.1,7,1.1,10.6v49.3l-0.1,0.8C637.2,170,633.6,173.5,629.3,173.5"/>
<g>
	<defs>
		<path id="SVGID_13_" d="M629.3,173.5c-4.3,0-7.9-3.4-8.1-7.8V165v-44.4c0-2.8-0.2-5.7-0.7-8.4c-0.4-2.3-1.2-4.5-2.2-6.6
			c-1.7-3.2-4.4-5.7-7.6-7.3c-3.5-1.6-7.2-2.4-11-2.3c-4-0.1-8,0.8-11.6,2.6c-3.4,1.8-6.1,4.7-7.6,8.1c-1.2,2.4-1.8,6.1-2.1,11.6
			v46.3l-0.1,1.1c-0.3,4.6-4.2,8-8.7,7.7c-4.2-0.3-7.5-3.6-7.7-7.7l-0.1-1.4v-46c0-0.4-0.2-5-0.4-6.1c-0.4-2.3-1.2-4.5-2.2-6.6
			c-1.7-3.2-4.4-5.8-7.6-7.3c-3.5-1.6-7.2-2.4-11.1-2.3c-4-0.1-8,0.8-11.6,2.6c-3.4,1.8-6.1,4.6-7.7,8.1c-1.6,3.3-2.4,7.7-2.4,13.5
			v45.1v0.5c-0.2,4.5-4.1,8-8.6,7.8c-4.2-0.2-7.5-3.6-7.8-7.8l-0.1-1.3v-48.8c0-6.9,1.2-12.7,3.5-17.3c1.3-2.6,3-5,5-7.1
			c2.2-2.2,4.6-4,7.3-5.4c3.1-1.6,6.3-2.8,9.7-3.6c4.1-0.9,8.2-1.3,12.4-1.3c8.6,0,15.8,1.4,21.3,4.3c2.4,1.2,4.6,2.7,6.6,4.5
			l1.9,1.6l1.9-1.6c1.7-1.5,3.6-2.8,5.6-3.9c3.1-1.6,6.4-2.8,9.8-3.6c4.1-0.9,8.2-1.3,12.4-1.3c8.6,0,15.7,1.4,21.3,4.3
			c5.1,2.5,9.4,6.5,12.4,11.4c1.5,2.6,2.6,5.5,3.3,8.4c0.8,3.5,1.1,7,1.1,10.6v49.3l-0.1,0.8C637.2,170,633.6,173.5,629.3,173.5"/>
	</defs>
	<clipPath id="SVGID_14_">
		<use xlink:href="#SVGID_13_"  style="overflow:visible;"/>
	</clipPath>
	<g class="st8">
		<rect x="502.1" y="78.4" class="st6" width="729.7" height="156.2"/>
	</g>
</g>
<path d="M841.7,59.4c0-28.4-23-51.4-51.4-51.4c-26.1,0-48.1,19.5-51.1,45.5l0,0l-0.4,57.3l54.4-0.1l0,0
	C820.4,109.1,841.6,86.6,841.7,59.4z"/>
<path class="st9" d="M820,66.7h-24.8v26h-12.8v-26h-24.6V55.2h24.6V29.3h12.8v25.9H820L820,66.7z"/>
</svg>
