<?xml version="1.0" encoding="utf-8"?>
<!-- Generator: Adobe Illustrator 25.1.0, SVG Export Plug-In . SVG Version: 6.00 Build 0)  -->
<svg version="1.1" id="Layer_1" xmlns="http://www.w3.org/2000/svg" xmlns:xlink="http://www.w3.org/1999/xlink" x="0px" y="0px"
	 viewBox="0 0 834.2 308.1" style="enable-background:new 0 0 834.2 308.1;" xml:space="preserve">
<style type="text/css">
	.st0{fill:#00D1CF;}
	.st1{fill:#04FF8E;}
	.st2{fill:#FFFFFF;}
</style>
<g>
	<g>
		<g>
			<g>
				<g>
					<path class="st0" d="M164.1,118.6L164.1,118.6c0,10.4,2.2,18.5,6.4,23.9c4.4,5.6,10.6,8.4,18.2,8.4c7.2,0.2,14.1-2.9,18.8-8.3
						c4.8-5.4,7.2-13.5,7.2-24s-2.1-18.4-6.4-23.8c-4.4-5.6-10.5-8.5-18.2-8.5c-7.2-0.2-14.1,2.9-18.9,8.3
						C166.5,100,164.1,108.1,164.1,118.6 M189.5,164.9c-12.4,0-22.6-3.8-30.1-11.4c-8.2-8.2-12.4-19.9-12.4-34.7
						c0-15.1,4.2-26.9,12.4-35.1c7.4-7.4,17.6-11.2,30.1-11.2c5.7,0,11.3,0.9,16.6,2.8c4.9,1.8,9.4,4.6,13.1,8.4
						c8.2,8.3,12.4,20.2,12.4,35.1c0,14.7-4.2,26.4-12.4,34.7C211.9,161,201.9,164.9,189.5,164.9"/>
					<g>
						<defs>
							<path id="SVGID_1_" d="M164.1,118.6L164.1,118.6c0,10.4,2.2,18.5,6.4,23.9c4.4,5.6,10.6,8.4,18.2,8.4
								c7.2,0.2,14.1-2.9,18.8-8.3c4.8-5.4,7.2-13.5,7.2-24s-2.1-18.4-6.4-23.8c-4.4-5.6-10.5-8.5-18.2-8.5
								c-7.2-0.2-14.1,2.9-18.9,8.3C166.5,100,164.1,108.1,164.1,118.6 M189.5,164.9c-12.4,0-22.6-3.8-30.1-11.4
								c-8.2-8.2-12.4-19.9-12.4-34.7c0-15.1,4.2-26.9,12.4-35.1c7.4-7.4,17.6-11.2,30.1-11.2c5.7,0,11.3,0.9,16.6,2.8
								c4.9,1.8,9.4,4.6,13.1,8.4c8.2,8.3,12.4,20.2,12.4,35.1c0,14.7-4.2,26.4-12.4,34.7C211.9,161,201.9,164.9,189.5,164.9"/>
						</defs>
						<clipPath id="SVGID_2_">
							<use xlink:href="#SVGID_1_"  style="overflow:visible;"/>
						</clipPath>
					</g>
				</g>
				<g>
					<path class="st0" d="M310.5,165.1c-4.4,0-8.1-3.6-8.2-8v-0.2v-44.6c0-2.8-0.2-5.7-0.7-8.4c-0.4-2.3-1.2-4.5-2.2-6.5
						c-1.7-3.2-4.4-5.8-7.6-7.3c-3.5-1.6-7.2-2.4-11.1-2.3c-4-0.1-8,0.8-11.6,2.6c-3.4,1.8-6.1,4.6-7.7,8.1
						c-1.6,3.3-2.4,7.7-2.4,13.5v44.8l0.1,0.4c0,4.5-3.7,8.2-8.2,8.2c-4.5,0-8.2-3.7-8.2-8.2l0,0l-0.1-1.9v-47.9
						c0-6.9,1.2-12.7,3.5-17.3c1.3-2.6,3-5,5-7.1c2.1-2.2,4.6-4,7.3-5.5c3.1-1.6,6.4-2.8,9.8-3.6c4.1-0.9,8.2-1.3,12.4-1.3
						c8.6,0,15.8,1.4,21.3,4.3c5.1,2.5,9.4,6.5,12.4,11.4c1.5,2.6,2.6,5.5,3.3,8.5c0.8,3.5,1.1,7,1.1,10.6v48.9v0.9
						C318.7,161.6,315,165.2,310.5,165.1"/>
					<g>
						<defs>
							<path id="SVGID_3_" d="M310.5,165.1c-4.4,0-8.1-3.6-8.2-8v-0.2v-44.6c0-2.8-0.2-5.7-0.7-8.4c-0.4-2.3-1.2-4.5-2.2-6.5
								c-1.7-3.2-4.4-5.8-7.6-7.3c-3.5-1.6-7.2-2.4-11.1-2.3c-4-0.1-8,0.8-11.6,2.6c-3.4,1.8-6.1,4.6-7.7,8.1
								c-1.6,3.3-2.4,7.7-2.4,13.5v44.8l0.1,0.4c0,4.5-3.7,8.2-8.2,8.2c-4.5,0-8.2-3.7-8.2-8.2l0,0l-0.1-1.9v-47.9
								c0-6.9,1.2-12.7,3.5-17.3c1.3-2.6,3-5,5-7.1c2.1-2.2,4.6-4,7.3-5.5c3.1-1.6,6.4-2.8,9.8-3.6c4.1-0.9,8.2-1.3,12.4-1.3
								c8.6,0,15.8,1.4,21.3,4.3c5.1,2.5,9.4,6.5,12.4,11.4c1.5,2.6,2.6,5.5,3.3,8.5c0.8,3.5,1.1,7,1.1,10.6v48.9v0.9
								C318.7,161.6,315,165.2,310.5,165.1"/>
						</defs>
						<clipPath id="SVGID_4_">
							<use xlink:href="#SVGID_3_"  style="overflow:visible;"/>
						</clipPath>
					</g>
				</g>
				<g>
					<path class="st0" d="M425.8,210.3c-1.4,0-2.8-0.1-4.1-0.2l-2.8-0.3c-2.8-0.4-5.6-1.1-8.3-2.1l-0.1-0.1l-0.5-0.2
						c-3.2-1.2-4.9-4.7-3.7-7.9c0.9-2.4,3.1-4,5.7-4.1c0.3,0,0.9,0.1,1.7,0.2l5.4,0.6l0.7,0.1c0.4,0,0.7,0.1,1.1,0.1
						c5.2,0.1,10.1-2.3,13.2-6.4c3.4-4.5,6-9.5,7.5-14.9l3.2-10l-32.2-80.2v-0.2l-0.1-0.5c-0.2-0.7-0.3-1.5-0.3-2.3
						c0-4.9,3.9-8.8,8.8-8.8c3.8,0,7.2,2.5,8.4,6.1l0.7,2.2h0.1l22.5,64.7l19.5-64.3l0,0l0.8-2.7c1.1-4.3,5.5-6.8,9.8-5.7
						c3.6,0.9,6.1,4.2,6,7.9c0,0.6-0.1,1.1-0.2,1.7l-0.1,0.5l-31.7,97.6c-3.5,10.6-7.8,18.2-12.7,22.7S433.3,210.3,425.8,210.3"/>
					<g>
						<defs>
							<path id="SVGID_5_" d="M425.8,210.3c-1.4,0-2.8-0.1-4.1-0.2l-2.8-0.3c-2.8-0.4-5.6-1.1-8.3-2.1l-0.1-0.1l-0.5-0.2
								c-3.2-1.2-4.9-4.7-3.7-7.9c0.9-2.4,3.1-4,5.7-4.1c0.3,0,0.9,0.1,1.7,0.2l5.4,0.6l0.7,0.1c0.4,0,0.7,0.1,1.1,0.1
								c5.2,0.1,10.1-2.3,13.2-6.4c3.4-4.5,6-9.5,7.5-14.9l3.2-10l-32.2-80.2v-0.2l-0.1-0.5c-0.2-0.7-0.3-1.5-0.3-2.3
								c0-4.9,3.9-8.8,8.8-8.8c3.8,0,7.2,2.5,8.4,6.1l0.7,2.2h0.1l22.5,64.7l19.5-64.3l0,0l0.8-2.7c1.1-4.3,5.5-6.8,9.8-5.7
								c3.6,0.9,6.1,4.2,6,7.9c0,0.6-0.1,1.1-0.2,1.7l-0.1,0.5l-31.7,97.6c-3.5,10.6-7.8,18.2-12.7,22.7S433.3,210.3,425.8,210.3"/>
						</defs>
						<clipPath id="SVGID_6_">
							<use xlink:href="#SVGID_5_"  style="overflow:visible;"/>
						</clipPath>
					</g>
				</g>
				<g>
					<path class="st0" d="M346.9,109.5L346.9,109.5l32-0.1h7.1l0,0c2.7,0,5.4-1.6,5.4-6.2c0-0.6-0.1-1.2-0.1-1.9
						c-0.6-2.7-1.6-5.3-3-7.6c-1.7-2.8-4.2-5.2-7.1-6.7c-3.2-1.6-6.7-2.4-10.2-2.3c-7.2,0-13,2.4-17.1,7.2
						C349.9,96.5,347.6,102.4,346.9,109.5 M370.7,164.9c-10.9,0.2-21.4-4.3-28.7-12.5c-8-8.7-12-20.1-12-33.8c0-14.1,4-25.5,12-34
						c7.7-8.2,17.1-12.1,28.7-12.1c12.1,0,21.1,4.1,27.8,12.5c3,3.9,5.3,8.4,6.7,13.2c0.6,1.9,1,3.8,1.4,5.6c0,0.3,0.1,0.6,0.2,0.9
						c0.1,0.8,0.2,1.6,0.2,2.4c0,7.8-6.3,14.1-14.1,14.2l0,0h-46.4l0.1,3c0.3,8.1,2.3,14.8,6.1,19.9c4,5.5,10.1,8.3,18,8.3
						c5.1,0,9.4-0.9,15-5.3c0.9-0.7,1.7-1.5,2.4-2.4c0.5-0.5,0.9-1,1.3-1.4l0.2-0.2l0.1-0.2c2.3-3.2,6.8-3.9,10-1.5
						c1.8,1.3,2.9,3.5,2.9,5.7c0,1.2-0.3,2.4-0.9,3.4l-0.1,0.2c-0.2,0.3-0.4,0.6-0.6,0.9c-1.5,2.1-3.4,3.9-5.4,5.4
						C388.9,162.2,380.5,164.9,370.7,164.9"/>
					<g>
						<defs>
							<path id="SVGID_7_" d="M346.9,109.5L346.9,109.5l32-0.1h7.1l0,0c2.7,0,5.4-1.6,5.4-6.2c0-0.6-0.1-1.2-0.1-1.9
								c-0.6-2.7-1.6-5.3-3-7.6c-1.7-2.8-4.2-5.2-7.1-6.7c-3.2-1.6-6.7-2.4-10.2-2.3c-7.2,0-13,2.4-17.1,7.2
								C349.9,96.5,347.6,102.4,346.9,109.5 M370.7,164.9c-10.9,0.2-21.4-4.3-28.7-12.5c-8-8.7-12-20.1-12-33.8c0-14.1,4-25.5,12-34
								c7.7-8.2,17.1-12.1,28.7-12.1c12.1,0,21.1,4.1,27.8,12.5c3,3.9,5.3,8.4,6.7,13.2c0.6,1.9,1,3.8,1.4,5.6
								c0,0.3,0.1,0.6,0.2,0.9c0.1,0.8,0.2,1.6,0.2,2.4c0,7.8-6.3,14.1-14.1,14.2l0,0h-46.4l0.1,3c0.3,8.1,2.3,14.8,6.1,19.9
								c4,5.5,10.1,8.3,18,8.3c5.1,0,9.4-0.9,15-5.3c0.9-0.7,1.7-1.5,2.4-2.4c0.5-0.5,0.9-1,1.3-1.4l0.2-0.2l0.1-0.2
								c2.3-3.2,6.8-3.9,10-1.5c1.8,1.3,2.9,3.5,2.9,5.7c0,1.2-0.3,2.4-0.9,3.4l-0.1,0.2c-0.2,0.3-0.4,0.6-0.6,0.9
								c-1.5,2.1-3.4,3.9-5.4,5.4C388.9,162.2,380.5,164.9,370.7,164.9"/>
						</defs>
						<clipPath id="SVGID_8_">
							<use xlink:href="#SVGID_7_"  style="overflow:visible;"/>
						</clipPath>
					</g>
				</g>
				<g>
					<path class="st0" d="M127.6,165.4c-4.4,0-7.9-3.4-8.1-7.8V157v-44.4c0-2.8-0.2-5.7-0.7-8.4c-0.4-2.3-1.2-4.5-2.2-6.6
						c-1.7-3.2-4.4-5.7-7.6-7.3c-3.5-1.6-7.2-2.4-11.1-2.3c-4-0.1-8,0.8-11.6,2.6c-3.4,1.8-6.1,4.6-7.6,8.1
						c-1.2,2.4-1.8,6.1-2.1,11.6v46.3l-0.1,1.1c-0.2,4.6-4.1,8.1-8.7,7.8c-4.2-0.2-7.6-3.6-7.8-7.8l-0.1-1.4v-46
						c0-0.4-0.2-5-0.4-6.1c-0.4-2.3-1.2-4.5-2.2-6.6c-1.7-3.2-4.4-5.7-7.6-7.3c-3.5-1.6-7.3-2.4-11.1-2.3c-4-0.1-8,0.8-11.6,2.6
						c-3.4,1.8-6.1,4.6-7.7,8.1c-1.6,3.3-2.4,7.7-2.4,13.5v45.1v0.5c-0.2,4.5-4.1,8-8.6,7.8c-4.2-0.2-7.5-3.6-7.8-7.8l-0.1-1.3
						v-48.9c0-6.9,1.2-12.7,3.5-17.3c1.3-2.6,3-5,5.1-7.1c2.2-2.2,4.6-4,7.3-5.4c3.1-1.6,6.4-2.8,9.8-3.6c4.1-0.9,8.2-1.3,12.4-1.3
						c8.6,0,15.8,1.4,21.3,4.3c2.4,1.2,4.6,2.7,6.6,4.5l1.9,1.6l1.9-1.6c1.7-1.5,3.6-2.8,5.6-3.9c3.1-1.6,6.4-2.8,9.8-3.6
						c4.1-0.9,8.2-1.3,12.4-1.3c8.6,0,15.8,1.4,21.3,4.3c5.1,2.5,9.4,6.5,12.4,11.4c1.5,2.6,2.6,5.5,3.3,8.4c0.8,3.5,1.1,7,1.1,10.6
						v49.3l-0.1,0.8C135.6,162,132,165.4,127.6,165.4"/>
					<g>
						<defs>
							<path id="SVGID_9_" d="M127.6,165.4c-4.4,0-7.9-3.4-8.1-7.8V157v-44.4c0-2.8-0.2-5.7-0.7-8.4c-0.4-2.3-1.2-4.5-2.2-6.6
								c-1.7-3.2-4.4-5.7-7.6-7.3c-3.5-1.6-7.2-2.4-11.1-2.3c-4-0.1-8,0.8-11.6,2.6c-3.4,1.8-6.1,4.6-7.6,8.1
								c-1.2,2.4-1.8,6.1-2.1,11.6v46.3l-0.1,1.1c-0.2,4.6-4.1,8.1-8.7,7.8c-4.2-0.2-7.6-3.6-7.8-7.8l-0.1-1.4v-46
								c0-0.4-0.2-5-0.4-6.1c-0.4-2.3-1.2-4.5-2.2-6.6c-1.7-3.2-4.4-5.7-7.6-7.3c-3.5-1.6-7.3-2.4-11.1-2.3c-4-0.1-8,0.8-11.6,2.6
								c-3.4,1.8-6.1,4.6-7.7,8.1c-1.6,3.3-2.4,7.7-2.4,13.5v45.1v0.5c-0.2,4.5-4.1,8-8.6,7.8c-4.2-0.2-7.5-3.6-7.8-7.8l-0.1-1.3
								v-48.9c0-6.9,1.2-12.7,3.5-17.3c1.3-2.6,3-5,5.1-7.1c2.2-2.2,4.6-4,7.3-5.4c3.1-1.6,6.4-2.8,9.8-3.6
								c4.1-0.9,8.2-1.3,12.4-1.3c8.6,0,15.8,1.4,21.3,4.3c2.4,1.2,4.6,2.7,6.6,4.5l1.9,1.6l1.9-1.6c1.7-1.5,3.6-2.8,5.6-3.9
								c3.1-1.6,6.4-2.8,9.8-3.6c4.1-0.9,8.2-1.3,12.4-1.3c8.6,0,15.8,1.4,21.3,4.3c5.1,2.5,9.4,6.5,12.4,11.4
								c1.5,2.6,2.6,5.5,3.3,8.4c0.8,3.5,1.1,7,1.1,10.6v49.3l-0.1,0.8C135.6,162,132,165.4,127.6,165.4"/>
						</defs>
						<clipPath id="SVGID_10_">
							<use xlink:href="#SVGID_9_"  style="overflow:visible;"/>
						</clipPath>
					</g>
				</g>
			</g>
			<g>
				<g>
					<path class="st1" d="M658.2,109.5L658.2,109.5l32-0.1h7.1l0,0c2.7,0,5.4-1.6,5.4-6.2c0-0.6,0-1.2-0.1-1.9
						c-0.6-2.7-1.6-5.3-3-7.6c-1.7-2.8-4.2-5.2-7.1-6.7c-3.1-1.6-6.6-2.3-10.2-2.2c-7.2,0-13,2.4-17.1,7.2c-4,4.6-6.3,10.5-7,17.6
						 M682.2,164.9c-10.9,0.3-21.4-4.3-28.7-12.5c-8-8.7-12-20.1-12-33.8c0-14.1,4-25.5,12-34c7.7-8.2,17.1-12.1,28.7-12.1
						c12.1,0,21.1,4.1,27.8,12.5c3,3.9,5.3,8.4,6.7,13.2c0.6,1.9,1,3.8,1.4,5.6c0,0.3,0.1,0.6,0.2,0.9c0.1,0.8,0.2,1.6,0.2,2.4
						c0,7.8-6.3,14.1-14.1,14.2l0,0h-46.4l0.1,3c0.3,8.1,2.3,14.8,6.1,19.9c4,5.5,10.1,8.3,18,8.3c5.1,0,9.3-0.9,15-5.3
						c0.9-0.7,1.7-1.5,2.4-2.4c0.5-0.5,0.9-1,1.3-1.4l0.2-0.2l0.1-0.2c2.3-3.2,6.8-3.9,10-1.5c1.8,1.3,2.9,3.5,2.9,5.7
						c0,1.2-0.3,2.4-0.9,3.4l-0.1,0.2c-0.2,0.3-0.4,0.6-0.6,0.9c-1.5,2.1-3.4,3.9-5.5,5.4c-6.7,5.2-15.1,7.8-24.8,7.8"/>
					<g>
						<defs>
							<path id="SVGID_11_" d="M658.2,109.5L658.2,109.5l32-0.1h7.1l0,0c2.7,0,5.4-1.6,5.4-6.2c0-0.6,0-1.2-0.1-1.9
								c-0.6-2.7-1.6-5.3-3-7.6c-1.7-2.8-4.2-5.2-7.1-6.7c-3.1-1.6-6.6-2.3-10.2-2.2c-7.2,0-13,2.4-17.1,7.2c-4,4.6-6.3,10.5-7,17.6
								 M682.2,164.9c-10.9,0.3-21.4-4.3-28.7-12.5c-8-8.7-12-20.1-12-33.8c0-14.1,4-25.5,12-34c7.7-8.2,17.1-12.1,28.7-12.1
								c12.1,0,21.1,4.1,27.8,12.5c3,3.9,5.3,8.4,6.7,13.2c0.6,1.9,1,3.8,1.4,5.6c0,0.3,0.1,0.6,0.2,0.9c0.1,0.8,0.2,1.6,0.2,2.4
								c0,7.8-6.3,14.1-14.1,14.2l0,0h-46.4l0.1,3c0.3,8.1,2.3,14.8,6.1,19.9c4,5.5,10.1,8.3,18,8.3c5.1,0,9.3-0.9,15-5.3
								c0.9-0.7,1.7-1.5,2.4-2.4c0.5-0.5,0.9-1,1.3-1.4l0.2-0.2l0.1-0.2c2.3-3.2,6.8-3.9,10-1.5c1.8,1.3,2.9,3.5,2.9,5.7
								c0,1.2-0.3,2.4-0.9,3.4l-0.1,0.2c-0.2,0.3-0.4,0.6-0.6,0.9c-1.5,2.1-3.4,3.9-5.5,5.4c-6.7,5.2-15.1,7.8-24.8,7.8"/>
						</defs>
						<clipPath id="SVGID_12_">
							<use xlink:href="#SVGID_11_"  style="overflow:visible;"/>
						</clipPath>
					</g>
				</g>
				<g>
					<path class="st1" d="M621.9,165.4c-4.4,0-7.9-3.4-8.2-7.8V157v-44.4c0-2.8-0.2-5.7-0.8-8.5c-0.4-2.3-1.2-4.5-2.2-6.6
						c-1.7-3.2-4.4-5.7-7.6-7.3c-3.5-1.6-7.2-2.4-11.1-2.3c-4-0.1-8,0.8-11.6,2.6c-3.4,1.8-6.1,4.6-7.7,8.1
						c-1.2,2.4-1.8,6.1-2.1,11.6v46.3l-0.1,1.1c-0.2,4.6-4.1,8.1-8.7,7.8c-4.2-0.2-7.6-3.6-7.8-7.8l-0.1-1.4v-46
						c0-0.4-0.2-5-0.4-6.1c-0.4-2.3-1.2-4.5-2.2-6.6c-1.7-3.2-4.4-5.7-7.6-7.3c-3.5-1.6-7.2-2.4-11.1-2.3c-4-0.1-8,0.8-11.6,2.6
						c-3.4,1.8-6.1,4.6-7.7,8.1c-1.6,3.3-2.4,7.7-2.4,13.5v45.1v0.5c-0.2,4.5-4.1,8-8.6,7.8c-4.2-0.2-7.5-3.6-7.8-7.8l-0.1-1.3
						v-48.8c0-6.9,1.2-12.7,3.5-17.3c1.3-2.6,3-5,5.1-7.1c2.2-2.2,4.6-4,7.3-5.4c3.1-1.6,6.4-2.8,9.8-3.6c4.1-0.9,8.2-1.3,12.4-1.3
						c8.6,0,15.8,1.4,21.3,4.3c2.4,1.2,4.6,2.7,6.6,4.5l1.9,1.6l1.9-1.6c1.7-1.5,3.6-2.8,5.6-3.9c3.1-1.6,6.4-2.8,9.8-3.6
						c4.1-0.9,8.2-1.3,12.4-1.3c8.6,0,15.8,1.4,21.3,4.3c5.1,2.5,9.4,6.5,12.4,11.4c1.5,2.6,2.6,5.5,3.3,8.4c0.8,3.5,1.1,7,1.1,10.6
						v49.3l-0.1,0.8C629.8,162,626.2,165.4,621.9,165.4"/>
					<g>
						<defs>
							<path id="SVGID_13_" d="M621.9,165.4c-4.4,0-7.9-3.4-8.2-7.8V157v-44.4c0-2.8-0.2-5.7-0.8-8.5c-0.4-2.3-1.2-4.5-2.2-6.6
								c-1.7-3.2-4.4-5.7-7.6-7.3c-3.5-1.6-7.2-2.4-11.1-2.3c-4-0.1-8,0.8-11.6,2.6c-3.4,1.8-6.1,4.6-7.7,8.1
								c-1.2,2.4-1.8,6.1-2.1,11.6v46.3l-0.1,1.1c-0.2,4.6-4.1,8.1-8.7,7.8c-4.2-0.2-7.6-3.6-7.8-7.8l-0.1-1.4v-46
								c0-0.4-0.2-5-0.4-6.1c-0.4-2.3-1.2-4.5-2.2-6.6c-1.7-3.2-4.4-5.7-7.6-7.3c-3.5-1.6-7.2-2.4-11.1-2.3c-4-0.1-8,0.8-11.6,2.6
								c-3.4,1.8-6.1,4.6-7.7,8.1c-1.6,3.3-2.4,7.7-2.4,13.5v45.1v0.5c-0.2,4.5-4.1,8-8.6,7.8c-4.2-0.2-7.5-3.6-7.8-7.8l-0.1-1.3
								v-48.8c0-6.9,1.2-12.7,3.5-17.3c1.3-2.6,3-5,5.1-7.1c2.2-2.2,4.6-4,7.3-5.4c3.1-1.6,6.4-2.8,9.8-3.6
								c4.1-0.9,8.2-1.3,12.4-1.3c8.6,0,15.8,1.4,21.3,4.3c2.4,1.2,4.6,2.7,6.6,4.5l1.9,1.6l1.9-1.6c1.7-1.5,3.6-2.8,5.6-3.9
								c3.1-1.6,6.4-2.8,9.8-3.6c4.1-0.9,8.2-1.3,12.4-1.3c8.6,0,15.8,1.4,21.3,4.3c5.1,2.5,9.4,6.5,12.4,11.4
								c1.5,2.6,2.6,5.5,3.3,8.4c0.8,3.5,1.1,7,1.1,10.6v49.3l-0.1,0.8C629.8,162,626.2,165.4,621.9,165.4"/>
						</defs>
						<clipPath id="SVGID_14_">
							<use xlink:href="#SVGID_13_"  style="overflow:visible;"/>
						</clipPath>
					</g>
				</g>
			</g>
		</g>
		<path d="M834.2,51.4C834.2,23,811.2,0,782.8,0c-26.1,0-48,19.5-51,45.4l0,0l-0.4,57.3l54.4-0.1l0,0
			C813,101.1,834.2,78.6,834.2,51.4z"/>
		<path class="st2" d="M812.6,58.7h-24.8v26H775v-26h-24.6V47.1H775V21.2h12.8v25.9h24.8V58.7z"/>
	</g>
	<g>
		<path d="M32.9,248c-0.2,0.3-0.4,0.6-0.8,0.9c-0.3,0.2-0.6,0.3-1,0.3c-0.6-0.1-1.1-0.3-1.6-0.7c-0.6-0.4-1.3-0.9-2.2-1.5
			c-1-0.6-2.1-1.1-3.2-1.5c-1.5-0.5-3-0.7-4.6-0.6c-1.5,0-3,0.2-4.4,0.7c-1.2,0.4-2.3,1-3.2,1.9c-0.9,0.7-1.5,1.7-2,2.7
			c-0.4,1.1-0.7,2.2-0.7,3.4c-0.1,1.4,0.3,2.7,1.1,3.9c0.8,1.1,1.8,2,3,2.6c1.4,0.8,2.8,1.4,4.2,1.9l4.9,1.6
			c1.7,0.6,3.3,1.2,4.9,1.9c1.5,0.7,3,1.6,4.3,2.7c1.3,1.1,2.3,2.5,3,4c0.9,1.8,1.3,3.8,1.3,5.8c0,2.3-0.4,4.6-1.2,6.8
			c-0.8,2.1-2,4-3.6,5.5c-1.7,1.6-3.7,2.8-5.8,3.6c-2.5,0.9-5.2,1.4-7.9,1.4c-3.4,0.1-6.7-0.6-9.8-2c-2.8-1.2-5.4-3-7.5-5.3l2.2-3.6
			c0.2-0.3,0.5-0.5,0.8-0.7c0.3-0.2,0.6-0.3,1-0.3c0.4,0,0.8,0.2,1.1,0.4c0.4,0.3,0.9,0.6,1.4,1s1.2,0.9,1.8,1.4
			c0.8,0.5,1.5,1,2.4,1.4c1,0.4,2,0.8,3,1c1.3,0.3,2.5,0.4,3.8,0.4c1.6,0,3.2-0.2,4.8-0.7c1.3-0.4,2.6-1.1,3.6-2
			c1-0.9,1.7-2,2.2-3.2c0.5-1.3,0.8-2.7,0.8-4.2c0.1-1.5-0.3-2.9-1.1-4.1c-0.8-1.1-1.8-2-3-2.7c-1.3-0.8-2.8-1.4-4.2-1.8l-4.9-1.5
			c-1.6-0.5-3.3-1.1-4.9-1.8c-1.6-0.7-3-1.6-4.2-2.7c-1.3-1.2-2.3-2.6-3-4.2c-1.5-3.8-1.5-8.1,0-11.9c0.8-1.8,1.9-3.5,3.3-4.9
			c1.5-1.5,3.3-2.6,5.3-3.4c2.3-0.9,4.8-1.3,7.3-1.3c2.9,0,5.7,0.5,8.4,1.5c2.5,1,4.8,2.4,6.7,4.2L32.9,248z"/>
		<path d="M51.1,260.9c1.6-1.7,3.5-3.2,5.6-4.3c2.2-1.1,4.6-1.6,7-1.6c1.9,0,3.9,0.3,5.7,1.1c1.6,0.7,3,1.7,4.1,3
			c1.1,1.4,2,3,2.5,4.7c0.6,2,0.9,4,0.9,6.1v25h-6.9v-24.9c0-3-0.7-5.3-2-6.9s-3.4-2.5-6.2-2.5c-2,0-4,0.5-5.7,1.5
			c-1.9,1-3.5,2.4-4.9,4v28.9h-6.9v-57h6.9L51.1,260.9z"/>
		<path d="M103.9,255c2.6,0,5.3,0.4,7.7,1.4c2.2,0.9,4.2,2.3,5.9,4.1c1.7,1.8,2.9,4,3.7,6.4c1.7,5.4,1.7,11.3,0,16.7
			c-0.8,2.4-2.1,4.5-3.7,6.4c-1.6,1.7-3.7,3.1-5.9,4c-2.5,1-5.1,1.5-7.7,1.4c-2.7,0-5.3-0.4-7.8-1.4c-2.2-0.9-4.2-2.3-5.9-4
			c-1.7-1.8-2.9-4-3.7-6.4c-1.7-5.4-1.7-11.3,0-16.7c0.8-2.4,2.1-4.5,3.7-6.4c1.6-1.8,3.7-3.2,5.9-4.1
			C98.6,255.5,101.3,255,103.9,255z M103.9,290c3.9,0,6.8-1.3,8.7-3.9c1.9-2.6,2.9-6.2,2.9-10.9c0-4.7-1-8.3-2.9-10.9
			c-1.9-2.6-4.8-3.9-8.7-4c-1.8,0-3.5,0.3-5.1,1c-1.4,0.6-2.7,1.6-3.6,2.9c-1.1,1.4-1.8,3-2.2,4.7c-0.5,2-0.7,4.1-0.7,6.2
			c0,4.7,1,8.3,2.9,10.9S100,290,103.9,290L103.9,290z"/>
		<path d="M137.8,261.7c1.6-2,3.5-3.7,5.7-4.9c2.3-1.3,4.8-1.9,7.4-1.9c2.1,0,4.2,0.4,6.1,1.3c1.8,0.9,3.5,2.2,4.7,3.8
			c1.4,1.9,2.4,4,3,6.3c0.7,2.8,1.1,5.7,1,8.6c0,2.7-0.4,5.5-1.2,8.1c-0.7,2.3-1.8,4.5-3.3,6.5c-3,3.8-7.5,5.9-12.3,5.9
			c-2.1,0.1-4.2-0.4-6.2-1.2c-1.7-0.8-3.3-2-4.6-3.4V308h-7v-52.4h4.1c0.9-0.1,1.7,0.6,1.8,1.4L137.8,261.7z M138.2,285.4
			c1.1,1.5,2.5,2.8,4.1,3.6c1.6,0.7,3.3,1.1,5,1c3.3,0.2,6.4-1.3,8.4-3.9c2-2.6,2.9-6.3,2.9-11.1c0-2.2-0.2-4.4-0.7-6.6
			c-0.4-1.6-1-3.1-2-4.5c-0.8-1.1-1.9-2-3.1-2.6c-1.3-0.6-2.8-0.8-4.2-0.8c-2.1,0-4.1,0.5-5.9,1.5c-1.8,1.1-3.4,2.6-4.7,4.4
			L138.2,285.4z"/>
		<path d="M200.9,261.3c0.8-0.9,1.7-1.8,2.7-2.6c0.9-0.8,1.9-1.4,3-2c1.1-0.6,2.2-1,3.4-1.3c1.3-0.3,2.6-0.4,3.9-0.4
			c1.9,0,3.9,0.3,5.7,1.1c1.6,0.7,3,1.7,4.1,3c1.1,1.4,2,3,2.5,4.7c0.6,2,0.9,4,0.9,6.1v25h-6.9v-25c0.2-2.5-0.5-4.9-2-6.9
			c-1.4-1.6-3.4-2.5-6.2-2.5c-2,0-4,0.5-5.7,1.5c-1.8,1-3.5,2.4-4.9,4v28.9h-6.9v-39.2h4.1c0.9-0.1,1.7,0.6,1.8,1.4L200.9,261.3z"/>
		<path d="M254.1,255c2.6,0,5.3,0.4,7.7,1.4c2.2,0.9,4.2,2.3,5.9,4.1c1.7,1.8,2.9,4,3.7,6.4c1.7,5.4,1.7,11.3,0,16.7
			c-0.8,2.3-2.1,4.5-3.7,6.4c-1.6,1.7-3.7,3.1-5.9,4c-2.5,1-5.1,1.4-7.7,1.4c-2.7,0-5.3-0.4-7.8-1.4c-2.2-0.9-4.2-2.3-5.9-4
			c-1.7-1.8-2.9-4-3.7-6.4c-1.7-5.4-1.7-11.3,0-16.7c0.8-2.4,2.1-4.5,3.7-6.4c1.6-1.8,3.7-3.1,5.9-4.1
			C248.8,255.5,251.4,255,254.1,255z M254.1,290c3.9,0,6.7-1.3,8.7-3.9s2.9-6.2,2.9-10.9c0-4.7-1-8.3-2.9-10.9
			c-1.9-2.6-4.8-3.9-8.7-3.9c-1.8,0-3.5,0.3-5.1,1c-1.4,0.6-2.7,1.6-3.6,2.9c-1,1.4-1.8,3-2.2,4.7c-0.5,2-0.7,4.1-0.7,6.2
			c0,4.7,1,8.3,2.9,10.9S250.2,290,254.1,290L254.1,290z"/>
		<path d="M334.9,255.6l-12.7,39.2h-5.5c-0.7,0-1.1-0.4-1.4-1.3l-8.7-26.6c-0.2-0.6-0.4-1.2-0.5-1.8c-0.1-0.6-0.2-1.2-0.4-1.8
			c-0.1,0.6-0.2,1.2-0.4,1.8c-0.1,0.6-0.3,1.2-0.5,1.8l-8.8,26.5c-0.1,0.8-0.8,1.3-1.5,1.3h-5.2l-12.7-39.2h5.4c0.5,0,1,0.1,1.4,0.4
			c0.4,0.2,0.6,0.6,0.8,1l7.5,25.2c0.4,1.9,0.8,3.6,1,5.3c0.2-0.9,0.5-1.7,0.7-2.6s0.5-1.8,0.8-2.7l8.3-25.4c0.1-0.4,0.4-0.7,0.7-1
			c0.3-0.3,0.7-0.4,1.2-0.4h3c0.5,0,0.9,0.1,1.3,0.4c0.3,0.3,0.6,0.6,0.7,1l8.1,25.4c0.3,0.9,0.5,1.8,0.8,2.7s0.5,1.7,0.7,2.6
			c0.1-0.9,0.3-1.7,0.5-2.6s0.4-1.8,0.6-2.7l7.7-25.2c0.1-0.4,0.4-0.8,0.7-1c0.4-0.3,0.8-0.4,1.3-0.4H334.9z"/>
		<path d="M408.8,294.8h-6.7c-0.6,0-1.2-0.1-1.8-0.3c-0.6-0.3-1.1-0.6-1.5-1.1l-5.6-5.6c-2.4,2.4-5.3,4.2-8.4,5.6
			c-3.3,1.4-6.8,2.1-10.4,2.1c-2,0-4.1-0.3-6-1c-1.9-0.7-3.7-1.7-5.3-3c-1.6-1.3-2.9-3-3.8-4.9c-1-2-1.5-4.2-1.4-6.5
			c0-1.7,0.3-3.5,0.9-5.1c0.6-1.6,1.5-3.1,2.5-4.5c1.1-1.4,2.4-2.6,3.8-3.7c1.5-1.1,3.1-2.1,4.8-2.8c-1.4-1.8-2.6-3.7-3.5-5.8
			c-0.7-1.9-1.1-3.8-1.1-5.8c0-1.8,0.3-3.6,1-5.3c0.7-1.6,1.7-3.1,3-4.3c1.4-1.3,3-2.3,4.7-2.9c2-0.7,4.1-1.1,6.2-1.1
			c1.9,0,3.8,0.3,5.6,1c1.6,0.6,3.1,1.5,4.3,2.6c1.2,1.1,2.1,2.3,2.8,3.7c0.7,1.4,1.1,2.9,1.2,4.5l-4.3,0.9
			c-0.9,0.2-1.5-0.2-1.9-1.2c-0.2-0.7-0.5-1.4-0.9-2.1c-0.4-0.7-0.9-1.4-1.5-2c-0.7-0.6-1.4-1.1-2.3-1.5c-1-0.4-2-0.6-3.1-0.6
			c-1.2,0-2.4,0.2-3.5,0.6c-1,0.4-1.9,1-2.7,1.7c-0.7,0.7-1.3,1.6-1.7,2.6c-0.4,1-0.6,2.1-0.6,3.2c0,0.9,0.1,1.7,0.3,2.6
			c0.2,0.9,0.6,1.7,1,2.5c0.5,0.9,1.1,1.8,1.7,2.6c0.8,1,1.6,1.9,2.5,2.8l15.9,16.3c1-1.7,1.8-3.6,2.4-5.5c0.6-1.8,1-3.7,1.1-5.7
			c0-0.4,0.2-0.8,0.5-1.2c0.3-0.3,0.7-0.4,1.1-0.4h4.2c0,3-0.5,5.9-1.4,8.7c-0.9,2.8-2.2,5.5-3.9,8L408.8,294.8z M373.1,267.5
			c-2.5,1.2-4.6,3-6.2,5.3c-1.4,2-2.1,4.3-2.1,6.7c-0.1,2.9,1.2,5.7,3.4,7.6c1,0.9,2.2,1.6,3.4,2c1.3,0.5,2.6,0.7,4,0.7
			c2.7,0,5.3-0.5,7.8-1.6c2.2-1,4.3-2.4,6-4.2L373.1,267.5z"/>
		<path d="M441.3,261.7c1.6-2,3.5-3.7,5.7-4.9c2.3-1.3,4.8-1.9,7.4-1.9c2.1,0,4.2,0.4,6.2,1.3c1.8,0.9,3.5,2.2,4.7,3.8
			c1.4,1.9,2.4,4,3,6.3c0.7,2.8,1.1,5.7,1,8.6c0,2.7-0.4,5.5-1.2,8.1c-0.7,2.3-1.8,4.5-3.3,6.5c-3,3.8-7.6,6-12.4,5.9
			c-2.1,0.1-4.2-0.4-6.2-1.2c-1.7-0.8-3.3-2-4.5-3.4V308h-6.9v-52.4h4.1c0.9-0.1,1.7,0.6,1.8,1.4L441.3,261.7z M441.7,285.4
			c1.1,1.5,2.5,2.8,4.1,3.6c1.6,0.7,3.3,1.1,5,1c3.3,0.2,6.4-1.3,8.4-3.9c2-2.6,2.9-6.3,2.9-11.1c0-2.2-0.2-4.4-0.7-6.6
			c-0.4-1.6-1-3.1-2-4.5c-0.8-1.1-1.9-2-3.1-2.6c-1.3-0.6-2.8-0.8-4.2-0.8c-2.1,0-4.1,0.5-5.9,1.5c-1.8,1.1-3.4,2.6-4.7,4.4
			L441.7,285.4z"/>
		<path d="M477.1,261.2c2-2,4.4-3.6,7-4.7c2.6-1.1,5.5-1.6,8.3-1.5c2,0,4,0.3,5.8,1.1c1.6,0.7,3.1,1.7,4.3,3
			c1.2,1.4,2.1,2.9,2.6,4.7c0.6,1.9,0.9,4,0.9,6v25.1H503c-0.5,0-1.1-0.1-1.5-0.3c-0.4-0.3-0.7-0.8-0.9-1.3l-0.8-3.7
			c-1,1-2,1.8-3,2.5c-1.9,1.5-4.2,2.5-6.5,3c-1.3,0.3-2.7,0.4-4.1,0.4c-1.5,0-2.9-0.2-4.3-0.6c-1.3-0.4-2.5-1.1-3.5-1.9
			c-1-0.9-1.8-2-2.4-3.2c-0.6-1.5-0.9-3-0.9-4.6c0-1.6,0.5-3.1,1.3-4.5c1-1.6,2.5-2.9,4.1-3.8c2.3-1.3,4.9-2.2,7.5-2.7
			c3.7-0.8,7.5-1.2,11.3-1.2v-3.1c0-3-0.7-5.3-2-6.9c-1.5-1.6-3.6-2.5-5.8-2.4c-1.5,0-2.9,0.2-4.3,0.6c-1,0.4-2.1,0.8-3,1.4
			c-0.8,0.5-1.6,1-2.2,1.4c-0.5,0.4-1.1,0.6-1.8,0.6c-0.4,0-0.8-0.1-1.2-0.4c-0.3-0.2-0.6-0.5-0.9-0.9L477.1,261.2z M499.3,277.2
			c-2.7,0.1-5.4,0.3-8.1,0.8c-1.9,0.3-3.7,0.8-5.5,1.6c-1.2,0.5-2.2,1.3-3,2.3c-0.6,0.9-1,1.9-1,2.9c0,0.9,0.1,1.8,0.5,2.7
			c0.3,0.7,0.8,1.3,1.4,1.8c0.6,0.5,1.3,0.8,2,1c0.8,0.2,1.7,0.3,2.5,0.3c1.1,0,2.2-0.1,3.3-0.4c1-0.2,1.9-0.6,2.8-1.1
			c0.9-0.5,1.8-1,2.6-1.7c0.8-0.7,1.6-1.4,2.4-2.2L499.3,277.2z"/>
		<path d="M549.4,255.6l-21.8,50.8c-0.2,0.5-0.5,0.9-0.9,1.2c-0.5,0.3-1,0.5-1.6,0.5H520l7.2-15.5l-16.2-36.9h6c0.5,0,1,0.1,1.4,0.5
			c0.3,0.3,0.6,0.6,0.7,1l10.5,24.7c0.4,1.1,0.7,2.3,1,3.4c0.4-1.2,0.8-2.4,1.2-3.5l10.2-24.7c0.2-0.4,0.4-0.8,0.8-1
			c0.4-0.3,0.8-0.4,1.3-0.4H549.4z"/>
		<path d="M580.5,237.8v57h-6.9v-57H580.5z"/>
		<path d="M590.7,261.2c2-2,4.4-3.6,7-4.7c2.6-1.1,5.5-1.6,8.3-1.5c2,0,4,0.3,5.8,1.1c1.6,0.7,3.1,1.7,4.3,3
			c1.2,1.4,2.1,2.9,2.6,4.7c0.6,1.9,0.9,4,0.9,6v25.1h-3.1c-0.5,0-1.1-0.1-1.5-0.3c-0.4-0.3-0.7-0.8-0.8-1.3l-0.8-3.7
			c-1,0.9-2,1.7-3,2.5c-1,0.7-2,1.3-3.1,1.9c-1.1,0.5-2.3,0.9-3.5,1.2c-1.3,0.3-2.7,0.4-4.1,0.4c-1.5,0-2.9-0.2-4.3-0.6
			c-1.3-0.4-2.5-1.1-3.5-1.9c-1-0.9-1.8-2-2.4-3.2c-0.6-1.5-0.9-3-0.9-4.6c0-1.6,0.4-3.1,1.3-4.5c1-1.6,2.5-2.9,4.1-3.8
			c2.3-1.3,4.9-2.2,7.5-2.7c3.7-0.8,7.5-1.2,11.3-1.2v-3.1c0-3-0.7-5.3-2-6.9c-1.5-1.6-3.6-2.5-5.8-2.4c-1.5,0-2.9,0.2-4.3,0.6
			c-1,0.4-2.1,0.8-3,1.4c-0.8,0.5-1.6,1-2.2,1.4c-0.5,0.4-1.1,0.6-1.8,0.6c-0.4,0-0.9-0.1-1.2-0.4c-0.3-0.2-0.6-0.5-0.8-0.9
			L590.7,261.2z M612.9,277.2c-2.7,0.1-5.4,0.3-8.1,0.8c-1.9,0.3-3.7,0.8-5.5,1.6c-1.2,0.5-2.2,1.3-3,2.3c-0.6,0.8-1,1.9-1,2.9
			c0,0.9,0.1,1.8,0.5,2.7c0.3,0.7,0.8,1.3,1.4,1.8c0.6,0.5,1.3,0.8,2,1c0.8,0.2,1.7,0.3,2.5,0.3c1.1,0,2.2-0.1,3.3-0.4
			c1-0.2,1.9-0.6,2.8-1.1c0.9-0.5,1.8-1,2.5-1.7c0.8-0.7,1.6-1.4,2.4-2.2L612.9,277.2z"/>
		<path d="M641.7,295.4c-3.1,0-5.5-0.9-7.1-2.6c-1.7-1.7-2.5-4.2-2.5-7.5v-24h-4.7c-0.4,0-0.7-0.1-1-0.4c-0.3-0.3-0.5-0.7-0.4-1.1
			v-2.7l6.4-0.8l1.6-12.1c0.1-0.4,0.2-0.7,0.5-1c0.3-0.2,0.7-0.4,1.1-0.4h3.5v13.5h11.3v5h-11.3v23.5c-0.1,1.3,0.3,2.7,1.2,3.7
			c0.8,0.8,1.9,1.2,3.1,1.2c0.6,0,1.3-0.1,1.9-0.3c0.5-0.2,0.9-0.4,1.4-0.6c0.4-0.2,0.7-0.5,1-0.6c0.2-0.2,0.4-0.3,0.7-0.3
			c0.4,0,0.8,0.3,1,0.7l2,3.3c-1.2,1.1-2.7,2-4.3,2.6C645.2,295.1,643.4,295.4,641.7,295.4z"/>
		<path d="M688.9,289.3c-0.9,1-1.9,2-3,2.7c-1.2,0.8-2.5,1.4-3.8,1.9c-1.4,0.5-2.8,0.9-4.2,1.1c-1.4,0.2-2.9,0.4-4.3,0.4
			c-2.6,0-5.1-0.4-7.5-1.4c-2.2-0.9-4.3-2.3-5.9-4c-1.7-1.9-3.1-4.1-3.9-6.5c-1-2.9-1.4-5.9-1.4-9c0-2.6,0.4-5.2,1.2-7.7
			c0.8-2.3,2-4.4,3.6-6.2c1.6-1.8,3.6-3.2,5.8-4.1c2.4-1,5-1.5,7.7-1.5c2.2,0,4.4,0.4,6.5,1.2c2,0.8,3.7,1.9,5.2,3.4
			c1.5,1.6,2.7,3.4,3.4,5.5c0.9,2.4,1.3,4.9,1.2,7.5c0.1,0.7-0.1,1.5-0.3,2.2c-0.3,0.4-0.8,0.6-1.3,0.5h-26.2c0,2.2,0.4,4.4,1,6.5
			c0.5,1.7,1.4,3.2,2.5,4.6c1.1,1.2,2.4,2.1,3.9,2.7c1.6,0.6,3.3,0.9,5,0.9c1.5,0,3-0.2,4.5-0.6c1.1-0.4,2.2-0.8,3.2-1.3
			c0.8-0.4,1.5-0.8,2.3-1.3c0.5-0.3,1-0.6,1.6-0.6c0.5,0,1,0.2,1.3,0.7L688.9,289.3z M683.4,270.9c0-1.5-0.2-3-0.7-4.4
			c-0.4-1.3-1.1-2.4-2-3.4c-0.9-1-1.9-1.7-3.2-2.2c-1.3-0.5-2.8-0.8-4.2-0.8c-2.9-0.2-5.7,0.9-7.8,2.9c-2,2.2-3.3,5-3.6,8
			L683.4,270.9z"/>
		<path d="M704.5,263.5c1-2.4,2.6-4.5,4.6-6.3c1.9-1.5,4.2-2.3,6.6-2.3c0.8,0,1.6,0.1,2.4,0.3c0.7,0.2,1.4,0.5,2,0.9l-0.5,5.1
			c-0.1,0.6-0.6,1-1.2,1c-0.5,0-1.1-0.1-1.6-0.2c-0.8-0.2-1.6-0.2-2.4-0.2c-1.1,0-2.2,0.2-3.3,0.5c-1,0.4-1.8,0.9-2.6,1.6
			c-0.8,0.8-1.5,1.7-2,2.6c-0.6,1.1-1.2,2.3-1.6,3.5v24.8H698v-39.2h3.9c0.6-0.1,1.1,0.1,1.5,0.4c0.3,0.4,0.5,0.9,0.6,1.5
			L704.5,263.5z"/>
	</g>
</g>
</svg>
