<?xml version="1.0" encoding="utf-8"?>
<!-- Generator: Adobe Illustrator 24.0.1, SVG Export Plug-In . SVG Version: 6.00 Build 0)  -->
<svg version="1.1" id="Layer_1" xmlns="http://www.w3.org/2000/svg" xmlns:xlink="http://www.w3.org/1999/xlink" x="0px" y="0px"
	 viewBox="0 0 80 80" style="enable-background:new 0 0 80 80;" xml:space="preserve">
<style type="text/css">
	.st0{fill:#FFFFFF;}
</style>
<g>
	<g transform="rotate(0 50 50)">
		<path class="st0" d="M40,5L40,5c3.2,0,5.8,2.6,5.8,5.8l0,0c0,3.2-2.6,5.8-5.8,5.8l0,0c-3.2,0-5.8-2.6-5.8-5.8l0,0
			C34.2,7.6,36.8,5,40,5z		">
<animate  accumulate="none" additive="replace" attributeName="opacity" begin="-0.875s" calcMode="linear" dur="1s" fill="remove" keyTimes="0;1" repeatCount="indefinite" restart="always" values="1;0">
				</animate>
		</path>
	</g>
	<g transform="rotate(45 50 50)">
		<path class="st0" d="M35.9,15L35.9,15c3.2,0,5.8,2.6,5.8,5.8l0,0c0,3.2-2.6,5.8-5.8,5.8l0,0c-3.2,0-5.8-2.6-5.8-5.8l0,0
			C30,17.6,32.6,15,35.9,15z		">
<animate  accumulate="none" additive="replace" attributeName="opacity" begin="-0.75s" calcMode="linear" dur="1s" fill="remove" keyTimes="0;1" repeatCount="indefinite" restart="always" values="1;0">
				</animate>
		</path>
	</g>
	<g transform="rotate(90 50 50)">
		<path class="st0" d="M40,25L40,25c3.2,0,5.8,2.6,5.8,5.8l0,0c0,3.2-2.6,5.8-5.8,5.8l0,0c-3.2,0-5.8-2.6-5.8-5.8l0,0
			C34.2,27.6,36.8,25,40,25z		">
<animate  accumulate="none" additive="replace" attributeName="opacity" begin="-0.625s" calcMode="linear" dur="1s" fill="remove" keyTimes="0;1" repeatCount="indefinite" restart="always" values="1;0">
				</animate>
		</path>
	</g>
	<g transform="rotate(135 50 50)">
		<path class="st0" d="M50,29.1L50,29.1c3.2,0,5.8,2.6,5.8,5.8l0,0c0,3.2-2.6,5.8-5.8,5.8l0,0c-3.2,0-5.8-2.6-5.8-5.8l0,0
			C44.2,31.8,46.8,29.1,50,29.1z		">
<animate  accumulate="none" additive="replace" attributeName="opacity" begin="-0.5s" calcMode="linear" dur="1s" fill="remove" keyTimes="0;1" repeatCount="indefinite" restart="always" values="1;0">
				</animate>
		</path>
	</g>
	<g transform="rotate(180 50 50)">
		<path class="st0" d="M60,25L60,25c3.2,0,5.8,2.6,5.8,5.8l0,0c0,3.2-2.6,5.8-5.8,5.8l0,0c-3.2,0-5.8-2.6-5.8-5.8l0,0
			C54.2,27.6,56.8,25,60,25z		">
<animate  accumulate="none" additive="replace" attributeName="opacity" begin="-0.375s" calcMode="linear" dur="1s" fill="remove" keyTimes="0;1" repeatCount="indefinite" restart="always" values="1;0">
				</animate>
		</path>
	</g>
	<g transform="rotate(225 50 50)">
		<path class="st0" d="M64.1,15L64.1,15c3.2,0,5.8,2.6,5.8,5.8l0,0c0,3.2-2.6,5.8-5.8,5.8l0,0c-3.2,0-5.8-2.6-5.8-5.8l0,0
			C58.3,17.6,60.9,15,64.1,15z		">
<animate  accumulate="none" additive="replace" attributeName="opacity" begin="-0.25s" calcMode="linear" dur="1s" fill="remove" keyTimes="0;1" repeatCount="indefinite" restart="always" values="1;0">
				</animate>
		</path>
	</g>
	<g transform="rotate(270 50 50)">
		<path class="st0" d="M60,5L60,5c3.2,0,5.8,2.6,5.8,5.8l0,0c0,3.2-2.6,5.8-5.8,5.8l0,0c-3.2,0-5.8-2.6-5.8-5.8l0,0
			C54.2,7.6,56.8,5,60,5z		">
<animate  accumulate="none" additive="replace" attributeName="opacity" begin="-0.125s" calcMode="linear" dur="1s" fill="remove" keyTimes="0;1" repeatCount="indefinite" restart="always" values="1;0">
				</animate>
		</path>
	</g>
	<g transform="rotate(315 50 50)">
		<path class="st0" d="M50,0.9L50,0.9c3.2,0,5.8,2.6,5.8,5.8l0,0c0,3.2-2.6,5.8-5.8,5.8l0,0c-3.2,0-5.8-2.6-5.8-5.8l0,0
			C44.2,3.5,46.8,0.9,50,0.9z		">
<animate  accumulate="none" additive="replace" attributeName="opacity" begin="0s" calcMode="linear" dur="1s" fill="remove" keyTimes="0;1" repeatCount="indefinite" restart="always" values="1;0">
				</animate>
		</path>
	</g>
</g>
</svg>
